<mxfile host="app.diagrams.net" modified="2024-03-27T02:48:54.730Z" agent="Mozilla/5.0 (Macintosh; Intel Mac OS X 10_15_7) AppleWebKit/537.36 (KHTML, like Gecko) Chrome/123.0.0.0 Safari/537.36" etag="ZBtUFiUolijYWW0NEuCE" version="24.1.0" type="device">
  <diagram name="Page-1" id="2NXGhho2t3oG0cFpqVRn">
    <mxGraphModel dx="986" dy="875" grid="0" gridSize="10" guides="1" tooltips="1" connect="1" arrows="1" fold="1" page="1" pageScale="1" pageWidth="850" pageHeight="1100" background="none" math="0" shadow="0">
      <root>
        <mxCell id="0" />
        <mxCell id="1" parent="0" />
        <mxCell id="cFq3RVqTJRuY4f_RMXQ--22" style="rounded=0;orthogonalLoop=1;jettySize=auto;html=1;exitX=0;exitY=1;exitDx=0;exitDy=0;entryX=1;entryY=0;entryDx=0;entryDy=0;strokeWidth=3;endArrow=none;endFill=0;" parent="1" source="cFq3RVqTJRuY4f_RMXQ--1" target="cFq3RVqTJRuY4f_RMXQ--11" edge="1">
          <mxGeometry relative="1" as="geometry" />
        </mxCell>
        <mxCell id="cFq3RVqTJRuY4f_RMXQ--23" style="rounded=0;orthogonalLoop=1;jettySize=auto;html=1;exitX=0;exitY=1;exitDx=0;exitDy=0;entryX=0.5;entryY=0;entryDx=0;entryDy=0;endArrow=none;endFill=0;strokeWidth=3;" parent="1" source="cFq3RVqTJRuY4f_RMXQ--1" target="cFq3RVqTJRuY4f_RMXQ--10" edge="1">
          <mxGeometry relative="1" as="geometry" />
        </mxCell>
        <mxCell id="zPZjHM6UMrZV1dsvePok-13" style="rounded=0;orthogonalLoop=1;jettySize=auto;html=1;exitX=0;exitY=1;exitDx=0;exitDy=0;entryX=1;entryY=0.5;entryDx=0;entryDy=0;endArrow=none;endFill=0;strokeColor=#FF0000;strokeWidth=12;opacity=50;" edge="1" parent="1" source="cFq3RVqTJRuY4f_RMXQ--1" target="cFq3RVqTJRuY4f_RMXQ--6">
          <mxGeometry relative="1" as="geometry" />
        </mxCell>
        <mxCell id="cFq3RVqTJRuY4f_RMXQ--1" value="&lt;font style=&quot;font-size: 30px;&quot;&gt;u&lt;/font&gt;" style="ellipse;whiteSpace=wrap;html=1;aspect=fixed;shadow=0;fillColor=#F7FF0D;gradientColor=none;" parent="1" vertex="1">
          <mxGeometry x="653" y="50" width="80" height="80" as="geometry" />
        </mxCell>
        <mxCell id="cFq3RVqTJRuY4f_RMXQ--14" style="rounded=0;orthogonalLoop=1;jettySize=auto;html=1;exitX=1;exitY=0.5;exitDx=0;exitDy=0;entryX=0;entryY=1;entryDx=0;entryDy=0;endArrow=none;endFill=0;strokeWidth=3;" parent="1" source="cFq3RVqTJRuY4f_RMXQ--3" target="cFq3RVqTJRuY4f_RMXQ--6" edge="1">
          <mxGeometry relative="1" as="geometry" />
        </mxCell>
        <mxCell id="cFq3RVqTJRuY4f_RMXQ--15" style="rounded=0;orthogonalLoop=1;jettySize=auto;html=1;exitX=1;exitY=0.5;exitDx=0;exitDy=0;entryX=0;entryY=0.5;entryDx=0;entryDy=0;endArrow=none;endFill=0;strokeWidth=3;" parent="1" source="cFq3RVqTJRuY4f_RMXQ--3" target="cFq3RVqTJRuY4f_RMXQ--8" edge="1">
          <mxGeometry relative="1" as="geometry" />
        </mxCell>
        <mxCell id="6PNBwNe4p9DDzN-ONV1q-1" style="rounded=0;orthogonalLoop=1;jettySize=auto;html=1;exitX=1;exitY=0.5;exitDx=0;exitDy=0;entryX=0;entryY=0;entryDx=0;entryDy=0;endArrow=none;endFill=0;strokeWidth=4;" parent="1" source="cFq3RVqTJRuY4f_RMXQ--3" target="cFq3RVqTJRuY4f_RMXQ--9" edge="1">
          <mxGeometry relative="1" as="geometry" />
        </mxCell>
        <mxCell id="zPZjHM6UMrZV1dsvePok-15" style="rounded=0;orthogonalLoop=1;jettySize=auto;html=1;exitX=1;exitY=0.5;exitDx=0;exitDy=0;entryX=0;entryY=0;entryDx=0;entryDy=0;strokeWidth=12;endArrow=none;endFill=0;strokeColor=#ff0000;opacity=50;" edge="1" parent="1" source="cFq3RVqTJRuY4f_RMXQ--3" target="cFq3RVqTJRuY4f_RMXQ--9">
          <mxGeometry relative="1" as="geometry" />
        </mxCell>
        <mxCell id="zPZjHM6UMrZV1dsvePok-18" style="rounded=0;orthogonalLoop=1;jettySize=auto;html=1;exitX=1;exitY=0.5;exitDx=0;exitDy=0;entryX=0;entryY=0.5;entryDx=0;entryDy=0;endArrow=none;endFill=0;strokeWidth=12;opacity=50;strokeColor=#FF0000;" edge="1" parent="1" source="cFq3RVqTJRuY4f_RMXQ--3" target="cFq3RVqTJRuY4f_RMXQ--8">
          <mxGeometry relative="1" as="geometry" />
        </mxCell>
        <mxCell id="cFq3RVqTJRuY4f_RMXQ--3" value="&lt;font style=&quot;font-size: 30px;&quot;&gt;r&lt;/font&gt;" style="ellipse;whiteSpace=wrap;html=1;aspect=fixed;fillColor=#F7FF0D;" parent="1" vertex="1">
          <mxGeometry x="118" y="170" width="80" height="80" as="geometry" />
        </mxCell>
        <mxCell id="cFq3RVqTJRuY4f_RMXQ--16" style="rounded=0;orthogonalLoop=1;jettySize=auto;html=1;exitX=1;exitY=0.5;exitDx=0;exitDy=0;entryX=0;entryY=1;entryDx=0;entryDy=0;endArrow=none;endFill=0;strokeWidth=3;fillColor=#b0e3e6;strokeColor=#000000;" parent="1" source="cFq3RVqTJRuY4f_RMXQ--6" target="cFq3RVqTJRuY4f_RMXQ--1" edge="1">
          <mxGeometry relative="1" as="geometry" />
        </mxCell>
        <mxCell id="zPZjHM6UMrZV1dsvePok-14" style="rounded=0;orthogonalLoop=1;jettySize=auto;html=1;exitX=0;exitY=1;exitDx=0;exitDy=0;entryX=1;entryY=0.5;entryDx=0;entryDy=0;strokeWidth=12;strokeColor=#ff0000;endArrow=none;endFill=0;opacity=50;" edge="1" parent="1" source="cFq3RVqTJRuY4f_RMXQ--6" target="cFq3RVqTJRuY4f_RMXQ--3">
          <mxGeometry relative="1" as="geometry" />
        </mxCell>
        <mxCell id="cFq3RVqTJRuY4f_RMXQ--6" value="&lt;font style=&quot;font-size: 30px;&quot;&gt;s&lt;/font&gt;" style="ellipse;whiteSpace=wrap;html=1;aspect=fixed;fillColor=#F7FF0D;" parent="1" vertex="1">
          <mxGeometry x="198" y="20" width="80" height="80" as="geometry" />
        </mxCell>
        <mxCell id="cFq3RVqTJRuY4f_RMXQ--20" style="rounded=0;orthogonalLoop=1;jettySize=auto;html=1;exitX=1;exitY=0.5;exitDx=0;exitDy=0;entryX=0;entryY=1;entryDx=0;entryDy=0;endArrow=none;endFill=0;strokeWidth=3;" parent="1" source="cFq3RVqTJRuY4f_RMXQ--8" target="cFq3RVqTJRuY4f_RMXQ--1" edge="1">
          <mxGeometry relative="1" as="geometry" />
        </mxCell>
        <mxCell id="cFq3RVqTJRuY4f_RMXQ--8" value="&lt;font style=&quot;font-size: 30px;&quot;&gt;t&lt;/font&gt;" style="ellipse;whiteSpace=wrap;html=1;aspect=fixed;fillColor=#F7FF0D;" parent="1" vertex="1">
          <mxGeometry x="398" y="160" width="80" height="80" as="geometry" />
        </mxCell>
        <mxCell id="zPZjHM6UMrZV1dsvePok-16" style="rounded=0;orthogonalLoop=1;jettySize=auto;html=1;exitX=1;exitY=1;exitDx=0;exitDy=0;entryX=0.5;entryY=0;entryDx=0;entryDy=0;endArrow=none;endFill=0;strokeColor=#FF0000;opacity=50;strokeWidth=12;" edge="1" parent="1" source="cFq3RVqTJRuY4f_RMXQ--9" target="cFq3RVqTJRuY4f_RMXQ--12">
          <mxGeometry relative="1" as="geometry" />
        </mxCell>
        <mxCell id="cFq3RVqTJRuY4f_RMXQ--9" value="&lt;font style=&quot;font-size: 30px;&quot;&gt;y&lt;/font&gt;" style="ellipse;whiteSpace=wrap;html=1;aspect=fixed;fillColor=#F7FF0D;" parent="1" vertex="1">
          <mxGeometry x="246" y="338" width="80" height="80" as="geometry" />
        </mxCell>
        <mxCell id="cFq3RVqTJRuY4f_RMXQ--24" style="rounded=0;orthogonalLoop=1;jettySize=auto;html=1;exitX=0;exitY=0.5;exitDx=0;exitDy=0;entryX=1;entryY=0.5;entryDx=0;entryDy=0;strokeWidth=3;endArrow=none;endFill=0;" parent="1" source="cFq3RVqTJRuY4f_RMXQ--10" target="cFq3RVqTJRuY4f_RMXQ--11" edge="1">
          <mxGeometry relative="1" as="geometry" />
        </mxCell>
        <mxCell id="cFq3RVqTJRuY4f_RMXQ--25" style="rounded=0;orthogonalLoop=1;jettySize=auto;html=1;exitX=0;exitY=1;exitDx=0;exitDy=0;entryX=0.5;entryY=0;entryDx=0;entryDy=0;endArrow=none;endFill=0;strokeWidth=4;" parent="1" source="cFq3RVqTJRuY4f_RMXQ--10" target="cFq3RVqTJRuY4f_RMXQ--12" edge="1">
          <mxGeometry relative="1" as="geometry" />
        </mxCell>
        <mxCell id="zPZjHM6UMrZV1dsvePok-19" style="rounded=0;orthogonalLoop=1;jettySize=auto;html=1;exitX=0;exitY=0.5;exitDx=0;exitDy=0;entryX=1;entryY=0.5;entryDx=0;entryDy=0;endArrow=none;endFill=0;strokeWidth=12;strokeColor=#ff0000;opacity=50;" edge="1" parent="1" source="cFq3RVqTJRuY4f_RMXQ--10" target="cFq3RVqTJRuY4f_RMXQ--11">
          <mxGeometry relative="1" as="geometry" />
        </mxCell>
        <mxCell id="cFq3RVqTJRuY4f_RMXQ--10" value="&lt;font style=&quot;font-size: 30px;&quot;&gt;v&lt;/font&gt;" style="ellipse;whiteSpace=wrap;html=1;aspect=fixed;fillColor=#F7FF0D;" parent="1" vertex="1">
          <mxGeometry x="653" y="340" width="80" height="80" as="geometry" />
        </mxCell>
        <mxCell id="cFq3RVqTJRuY4f_RMXQ--26" style="rounded=0;orthogonalLoop=1;jettySize=auto;html=1;exitX=0.5;exitY=1;exitDx=0;exitDy=0;entryX=0.5;entryY=0;entryDx=0;entryDy=0;endArrow=none;endFill=0;strokeWidth=3;" parent="1" source="cFq3RVqTJRuY4f_RMXQ--11" target="cFq3RVqTJRuY4f_RMXQ--12" edge="1">
          <mxGeometry relative="1" as="geometry" />
        </mxCell>
        <mxCell id="cFq3RVqTJRuY4f_RMXQ--11" value="&lt;font style=&quot;font-size: 30px;&quot;&gt;w&lt;/font&gt;" style="ellipse;whiteSpace=wrap;html=1;aspect=fixed;fillColor=#F7FF0D;" parent="1" vertex="1">
          <mxGeometry x="398" y="340" width="80" height="80" as="geometry" />
        </mxCell>
        <mxCell id="6PNBwNe4p9DDzN-ONV1q-2" style="rounded=0;orthogonalLoop=1;jettySize=auto;html=1;exitX=0.5;exitY=0;exitDx=0;exitDy=0;entryX=1;entryY=1;entryDx=0;entryDy=0;endArrow=none;endFill=0;strokeWidth=4;" parent="1" source="cFq3RVqTJRuY4f_RMXQ--12" target="cFq3RVqTJRuY4f_RMXQ--9" edge="1">
          <mxGeometry relative="1" as="geometry" />
        </mxCell>
        <mxCell id="zPZjHM6UMrZV1dsvePok-17" style="rounded=0;orthogonalLoop=1;jettySize=auto;html=1;exitX=0.5;exitY=0;exitDx=0;exitDy=0;entryX=0;entryY=1;entryDx=0;entryDy=0;endArrow=none;endFill=0;strokeWidth=12;strokeColor=#ff0000;opacity=50;" edge="1" parent="1" source="cFq3RVqTJRuY4f_RMXQ--12" target="cFq3RVqTJRuY4f_RMXQ--10">
          <mxGeometry relative="1" as="geometry" />
        </mxCell>
        <mxCell id="cFq3RVqTJRuY4f_RMXQ--12" value="&lt;font style=&quot;font-size: 30px;&quot;&gt;x&lt;/font&gt;" style="ellipse;whiteSpace=wrap;html=1;aspect=fixed;fillColor=#F7FF0D;" parent="1" vertex="1">
          <mxGeometry x="433" y="590" width="80" height="80" as="geometry" />
        </mxCell>
        <mxCell id="cFq3RVqTJRuY4f_RMXQ--17" value="&lt;font style=&quot;font-size: 18px;&quot;&gt;13&lt;/font&gt;" style="text;html=1;align=center;verticalAlign=middle;whiteSpace=wrap;rounded=0;" parent="1" vertex="1">
          <mxGeometry x="150" y="110" width="60" height="30" as="geometry" />
        </mxCell>
        <mxCell id="cFq3RVqTJRuY4f_RMXQ--18" value="&lt;font style=&quot;font-size: 18px;&quot;&gt;17&lt;/font&gt;" style="text;html=1;align=center;verticalAlign=middle;whiteSpace=wrap;rounded=0;" parent="1" vertex="1">
          <mxGeometry x="268" y="180" width="60" height="30" as="geometry" />
        </mxCell>
        <mxCell id="cFq3RVqTJRuY4f_RMXQ--19" value="&lt;font style=&quot;font-size: 18px;&quot;&gt;16&lt;/font&gt;" style="text;html=1;align=center;verticalAlign=middle;whiteSpace=wrap;rounded=0;" parent="1" vertex="1">
          <mxGeometry x="433" y="50" width="60" height="30" as="geometry" />
        </mxCell>
        <mxCell id="cFq3RVqTJRuY4f_RMXQ--21" value="&lt;font style=&quot;font-size: 18px;&quot;&gt;19&lt;/font&gt;" style="text;html=1;align=center;verticalAlign=middle;whiteSpace=wrap;rounded=0;" parent="1" vertex="1">
          <mxGeometry x="538" y="130" width="60" height="30" as="geometry" />
        </mxCell>
        <mxCell id="cFq3RVqTJRuY4f_RMXQ--27" value="&lt;font style=&quot;font-size: 18px;&quot;&gt;21&lt;/font&gt;" style="text;html=1;align=center;verticalAlign=middle;whiteSpace=wrap;rounded=0;" parent="1" vertex="1">
          <mxGeometry x="673" y="230" width="60" height="30" as="geometry" />
        </mxCell>
        <mxCell id="cFq3RVqTJRuY4f_RMXQ--28" value="&lt;font style=&quot;font-size: 18px;&quot;&gt;26&lt;/font&gt;" style="text;html=1;align=center;verticalAlign=middle;whiteSpace=wrap;rounded=0;" parent="1" vertex="1">
          <mxGeometry x="528" y="250" width="60" height="30" as="geometry" />
        </mxCell>
        <mxCell id="cFq3RVqTJRuY4f_RMXQ--30" value="&lt;font style=&quot;font-size: 18px;&quot;&gt;17&lt;/font&gt;" style="text;html=1;align=center;verticalAlign=middle;whiteSpace=wrap;rounded=0;" parent="1" vertex="1">
          <mxGeometry x="538" y="350" width="60" height="30" as="geometry" />
        </mxCell>
        <mxCell id="cFq3RVqTJRuY4f_RMXQ--31" value="&lt;font style=&quot;font-size: 18px;&quot;&gt;17&lt;/font&gt;" style="text;html=1;align=center;verticalAlign=middle;whiteSpace=wrap;rounded=0;" parent="1" vertex="1">
          <mxGeometry x="433" y="470" width="60" height="30" as="geometry" />
        </mxCell>
        <mxCell id="cFq3RVqTJRuY4f_RMXQ--32" value="&lt;font style=&quot;font-size: 18px;&quot;&gt;13&lt;/font&gt;" style="text;html=1;align=center;verticalAlign=middle;whiteSpace=wrap;rounded=0;" parent="1" vertex="1">
          <mxGeometry x="568" y="480" width="60" height="30" as="geometry" />
        </mxCell>
        <mxCell id="cFq3RVqTJRuY4f_RMXQ--33" style="rounded=0;orthogonalLoop=1;jettySize=auto;html=1;exitX=0;exitY=1;exitDx=0;exitDy=0;entryX=1;entryY=0;entryDx=0;entryDy=0;strokeWidth=3;endArrow=none;endFill=0;" parent="1" source="cFq3RVqTJRuY4f_RMXQ--35" target="cFq3RVqTJRuY4f_RMXQ--48" edge="1">
          <mxGeometry relative="1" as="geometry" />
        </mxCell>
        <mxCell id="cFq3RVqTJRuY4f_RMXQ--34" style="rounded=0;orthogonalLoop=1;jettySize=auto;html=1;exitX=0;exitY=1;exitDx=0;exitDy=0;entryX=0.5;entryY=0;entryDx=0;entryDy=0;endArrow=none;endFill=0;strokeWidth=3;" parent="1" source="cFq3RVqTJRuY4f_RMXQ--35" target="cFq3RVqTJRuY4f_RMXQ--46" edge="1">
          <mxGeometry relative="1" as="geometry" />
        </mxCell>
        <mxCell id="cFq3RVqTJRuY4f_RMXQ--311" style="rounded=0;orthogonalLoop=1;jettySize=auto;html=1;exitX=0;exitY=1;exitDx=0;exitDy=0;entryX=1;entryY=0.5;entryDx=0;entryDy=0;endArrow=none;endFill=0;strokeWidth=12;strokeColor=#ff0000;opacity=50;" parent="1" source="cFq3RVqTJRuY4f_RMXQ--35" target="cFq3RVqTJRuY4f_RMXQ--40" edge="1">
          <mxGeometry relative="1" as="geometry" />
        </mxCell>
        <mxCell id="cFq3RVqTJRuY4f_RMXQ--35" value="&lt;font style=&quot;font-size: 30px;&quot;&gt;u&lt;/font&gt;" style="ellipse;whiteSpace=wrap;html=1;aspect=fixed;fillColor=#F7FF0D;" parent="1" vertex="1">
          <mxGeometry x="665.5" y="1200" width="80" height="80" as="geometry" />
        </mxCell>
        <mxCell id="cFq3RVqTJRuY4f_RMXQ--36" style="rounded=0;orthogonalLoop=1;jettySize=auto;html=1;exitX=1;exitY=0;exitDx=0;exitDy=0;entryX=0;entryY=1;entryDx=0;entryDy=0;endArrow=none;endFill=0;strokeWidth=3;" parent="1" source="cFq3RVqTJRuY4f_RMXQ--38" target="cFq3RVqTJRuY4f_RMXQ--40" edge="1">
          <mxGeometry relative="1" as="geometry" />
        </mxCell>
        <mxCell id="cFq3RVqTJRuY4f_RMXQ--37" style="rounded=0;orthogonalLoop=1;jettySize=auto;html=1;exitX=1;exitY=0.5;exitDx=0;exitDy=0;entryX=0;entryY=0.5;entryDx=0;entryDy=0;endArrow=none;endFill=0;strokeWidth=3;" parent="1" source="cFq3RVqTJRuY4f_RMXQ--38" target="cFq3RVqTJRuY4f_RMXQ--42" edge="1">
          <mxGeometry relative="1" as="geometry" />
        </mxCell>
        <mxCell id="cFq3RVqTJRuY4f_RMXQ--38" value="&lt;font style=&quot;font-size: 30px;&quot;&gt;r&lt;/font&gt;" style="ellipse;whiteSpace=wrap;html=1;aspect=fixed;" parent="1" vertex="1">
          <mxGeometry x="130.5" y="1320" width="80" height="80" as="geometry" />
        </mxCell>
        <mxCell id="cFq3RVqTJRuY4f_RMXQ--39" style="rounded=0;orthogonalLoop=1;jettySize=auto;html=1;exitX=1;exitY=0.5;exitDx=0;exitDy=0;entryX=0;entryY=1;entryDx=0;entryDy=0;endArrow=none;endFill=0;strokeWidth=3;" parent="1" source="cFq3RVqTJRuY4f_RMXQ--40" target="cFq3RVqTJRuY4f_RMXQ--35" edge="1">
          <mxGeometry relative="1" as="geometry" />
        </mxCell>
        <mxCell id="cFq3RVqTJRuY4f_RMXQ--40" value="&lt;font style=&quot;font-size: 30px;&quot;&gt;s&lt;/font&gt;" style="ellipse;whiteSpace=wrap;html=1;aspect=fixed;fillColor=#ffffff;" parent="1" vertex="1">
          <mxGeometry x="210.5" y="1170" width="80" height="80" as="geometry" />
        </mxCell>
        <mxCell id="cFq3RVqTJRuY4f_RMXQ--41" style="rounded=0;orthogonalLoop=1;jettySize=auto;html=1;exitX=1;exitY=0.5;exitDx=0;exitDy=0;entryX=0;entryY=1;entryDx=0;entryDy=0;endArrow=none;endFill=0;strokeWidth=3;" parent="1" source="cFq3RVqTJRuY4f_RMXQ--42" target="cFq3RVqTJRuY4f_RMXQ--35" edge="1">
          <mxGeometry relative="1" as="geometry" />
        </mxCell>
        <mxCell id="cFq3RVqTJRuY4f_RMXQ--42" value="&lt;font style=&quot;font-size: 30px;&quot;&gt;t&lt;/font&gt;" style="ellipse;whiteSpace=wrap;html=1;aspect=fixed;" parent="1" vertex="1">
          <mxGeometry x="410.5" y="1310" width="80" height="80" as="geometry" />
        </mxCell>
        <mxCell id="cFq3RVqTJRuY4f_RMXQ--43" value="&lt;font style=&quot;font-size: 30px;&quot;&gt;y&lt;/font&gt;" style="ellipse;whiteSpace=wrap;html=1;aspect=fixed;" parent="1" vertex="1">
          <mxGeometry x="220.5" y="1500" width="80" height="80" as="geometry" />
        </mxCell>
        <mxCell id="cFq3RVqTJRuY4f_RMXQ--44" style="rounded=0;orthogonalLoop=1;jettySize=auto;html=1;exitX=0;exitY=0.5;exitDx=0;exitDy=0;entryX=1;entryY=0.5;entryDx=0;entryDy=0;strokeWidth=3;endArrow=none;endFill=0;" parent="1" source="cFq3RVqTJRuY4f_RMXQ--46" target="cFq3RVqTJRuY4f_RMXQ--48" edge="1">
          <mxGeometry relative="1" as="geometry" />
        </mxCell>
        <mxCell id="cFq3RVqTJRuY4f_RMXQ--45" style="rounded=0;orthogonalLoop=1;jettySize=auto;html=1;exitX=0;exitY=1;exitDx=0;exitDy=0;entryX=0.5;entryY=0;entryDx=0;entryDy=0;endArrow=none;endFill=0;strokeWidth=4;" parent="1" source="cFq3RVqTJRuY4f_RMXQ--46" target="cFq3RVqTJRuY4f_RMXQ--49" edge="1">
          <mxGeometry relative="1" as="geometry" />
        </mxCell>
        <mxCell id="cFq3RVqTJRuY4f_RMXQ--46" value="&lt;font style=&quot;font-size: 30px;&quot;&gt;v&lt;/font&gt;" style="ellipse;whiteSpace=wrap;html=1;aspect=fixed;" parent="1" vertex="1">
          <mxGeometry x="665.5" y="1490" width="80" height="80" as="geometry" />
        </mxCell>
        <mxCell id="cFq3RVqTJRuY4f_RMXQ--47" style="rounded=0;orthogonalLoop=1;jettySize=auto;html=1;exitX=0.5;exitY=1;exitDx=0;exitDy=0;entryX=0.5;entryY=0;entryDx=0;entryDy=0;endArrow=none;endFill=0;strokeWidth=3;" parent="1" source="cFq3RVqTJRuY4f_RMXQ--48" target="cFq3RVqTJRuY4f_RMXQ--49" edge="1">
          <mxGeometry relative="1" as="geometry" />
        </mxCell>
        <mxCell id="cFq3RVqTJRuY4f_RMXQ--48" value="&lt;font style=&quot;font-size: 30px;&quot;&gt;w&lt;/font&gt;" style="ellipse;whiteSpace=wrap;html=1;aspect=fixed;" parent="1" vertex="1">
          <mxGeometry x="410.5" y="1490" width="80" height="80" as="geometry" />
        </mxCell>
        <mxCell id="cFq3RVqTJRuY4f_RMXQ--49" value="&lt;font style=&quot;font-size: 30px;&quot;&gt;x&lt;/font&gt;" style="ellipse;whiteSpace=wrap;html=1;aspect=fixed;" parent="1" vertex="1">
          <mxGeometry x="445.5" y="1740" width="80" height="80" as="geometry" />
        </mxCell>
        <mxCell id="cFq3RVqTJRuY4f_RMXQ--50" value="&lt;font style=&quot;font-size: 18px;&quot;&gt;13&lt;/font&gt;" style="text;html=1;align=center;verticalAlign=middle;whiteSpace=wrap;rounded=0;" parent="1" vertex="1">
          <mxGeometry x="170.5" y="1260" width="60" height="30" as="geometry" />
        </mxCell>
        <mxCell id="cFq3RVqTJRuY4f_RMXQ--51" value="&lt;font style=&quot;font-size: 18px;&quot;&gt;17&lt;/font&gt;" style="text;html=1;align=center;verticalAlign=middle;whiteSpace=wrap;rounded=0;" parent="1" vertex="1">
          <mxGeometry x="280.5" y="1330" width="60" height="30" as="geometry" />
        </mxCell>
        <mxCell id="cFq3RVqTJRuY4f_RMXQ--52" value="&lt;font style=&quot;font-size: 18px;&quot;&gt;16&lt;/font&gt;" style="text;html=1;align=center;verticalAlign=middle;whiteSpace=wrap;rounded=0;" parent="1" vertex="1">
          <mxGeometry x="445.5" y="1200" width="60" height="30" as="geometry" />
        </mxCell>
        <mxCell id="cFq3RVqTJRuY4f_RMXQ--53" value="&lt;font style=&quot;font-size: 18px;&quot;&gt;19&lt;/font&gt;" style="text;html=1;align=center;verticalAlign=middle;whiteSpace=wrap;rounded=0;" parent="1" vertex="1">
          <mxGeometry x="550.5" y="1280" width="60" height="30" as="geometry" />
        </mxCell>
        <mxCell id="cFq3RVqTJRuY4f_RMXQ--54" value="&lt;font style=&quot;font-size: 18px;&quot;&gt;21&lt;/font&gt;" style="text;html=1;align=center;verticalAlign=middle;whiteSpace=wrap;rounded=0;" parent="1" vertex="1">
          <mxGeometry x="685.5" y="1380" width="60" height="30" as="geometry" />
        </mxCell>
        <mxCell id="cFq3RVqTJRuY4f_RMXQ--55" value="&lt;font style=&quot;font-size: 18px;&quot;&gt;26&lt;/font&gt;" style="text;html=1;align=center;verticalAlign=middle;whiteSpace=wrap;rounded=0;" parent="1" vertex="1">
          <mxGeometry x="540.5" y="1400" width="60" height="30" as="geometry" />
        </mxCell>
        <mxCell id="cFq3RVqTJRuY4f_RMXQ--56" value="&lt;font style=&quot;font-size: 18px;&quot;&gt;17&lt;/font&gt;" style="text;html=1;align=center;verticalAlign=middle;whiteSpace=wrap;rounded=0;" parent="1" vertex="1">
          <mxGeometry x="550.5" y="1500" width="60" height="30" as="geometry" />
        </mxCell>
        <mxCell id="cFq3RVqTJRuY4f_RMXQ--57" value="&lt;font style=&quot;font-size: 18px;&quot;&gt;17&lt;/font&gt;" style="text;html=1;align=center;verticalAlign=middle;whiteSpace=wrap;rounded=0;" parent="1" vertex="1">
          <mxGeometry x="445.5" y="1620" width="60" height="30" as="geometry" />
        </mxCell>
        <mxCell id="cFq3RVqTJRuY4f_RMXQ--58" value="&lt;font style=&quot;font-size: 18px;&quot;&gt;13&lt;/font&gt;" style="text;html=1;align=center;verticalAlign=middle;whiteSpace=wrap;rounded=0;" parent="1" vertex="1">
          <mxGeometry x="580.5" y="1630" width="60" height="30" as="geometry" />
        </mxCell>
        <mxCell id="cFq3RVqTJRuY4f_RMXQ--287" value="r" style="whiteSpace=wrap;html=1;aspect=fixed;" parent="1" vertex="1">
          <mxGeometry x="252" y="1854" width="49" height="49" as="geometry" />
        </mxCell>
        <mxCell id="cFq3RVqTJRuY4f_RMXQ--288" value="s" style="whiteSpace=wrap;html=1;aspect=fixed;" parent="1" vertex="1">
          <mxGeometry x="300.5" y="1854" width="49" height="49" as="geometry" />
        </mxCell>
        <mxCell id="cFq3RVqTJRuY4f_RMXQ--289" value="t" style="whiteSpace=wrap;html=1;aspect=fixed;" parent="1" vertex="1">
          <mxGeometry x="349.5" y="1854" width="49" height="49" as="geometry" />
        </mxCell>
        <mxCell id="cFq3RVqTJRuY4f_RMXQ--290" value="y" style="whiteSpace=wrap;html=1;aspect=fixed;" parent="1" vertex="1">
          <mxGeometry x="594" y="1854" width="49" height="49" as="geometry" />
        </mxCell>
        <mxCell id="cFq3RVqTJRuY4f_RMXQ--292" value="v" style="whiteSpace=wrap;html=1;aspect=fixed;" parent="1" vertex="1">
          <mxGeometry x="447" y="1854" width="49" height="49" as="geometry" />
        </mxCell>
        <mxCell id="cFq3RVqTJRuY4f_RMXQ--293" value="w" style="whiteSpace=wrap;html=1;aspect=fixed;" parent="1" vertex="1">
          <mxGeometry x="496" y="1854" width="49" height="49" as="geometry" />
        </mxCell>
        <mxCell id="cFq3RVqTJRuY4f_RMXQ--294" value="x" style="whiteSpace=wrap;html=1;aspect=fixed;" parent="1" vertex="1">
          <mxGeometry x="545" y="1854" width="49" height="49" as="geometry" />
        </mxCell>
        <mxCell id="cFq3RVqTJRuY4f_RMXQ--295" value="∞" style="whiteSpace=wrap;html=1;aspect=fixed;" parent="1" vertex="1">
          <mxGeometry x="252" y="1903" width="49" height="49" as="geometry" />
        </mxCell>
        <mxCell id="cFq3RVqTJRuY4f_RMXQ--296" value="16" style="whiteSpace=wrap;html=1;aspect=fixed;" parent="1" vertex="1">
          <mxGeometry x="300.5" y="1903" width="49" height="49" as="geometry" />
        </mxCell>
        <mxCell id="cFq3RVqTJRuY4f_RMXQ--297" value="19" style="whiteSpace=wrap;html=1;aspect=fixed;" parent="1" vertex="1">
          <mxGeometry x="349.5" y="1903" width="49" height="49" as="geometry" />
        </mxCell>
        <mxCell id="cFq3RVqTJRuY4f_RMXQ--298" value="∞" style="whiteSpace=wrap;html=1;aspect=fixed;" parent="1" vertex="1">
          <mxGeometry x="594" y="1903" width="49" height="49" as="geometry" />
        </mxCell>
        <mxCell id="cFq3RVqTJRuY4f_RMXQ--300" value="21" style="whiteSpace=wrap;html=1;aspect=fixed;" parent="1" vertex="1">
          <mxGeometry x="447" y="1903" width="49" height="49" as="geometry" />
        </mxCell>
        <mxCell id="cFq3RVqTJRuY4f_RMXQ--301" value="26" style="whiteSpace=wrap;html=1;aspect=fixed;" parent="1" vertex="1">
          <mxGeometry x="496" y="1903" width="49" height="49" as="geometry" />
        </mxCell>
        <mxCell id="cFq3RVqTJRuY4f_RMXQ--302" value="∞" style="whiteSpace=wrap;html=1;aspect=fixed;" parent="1" vertex="1">
          <mxGeometry x="545" y="1903" width="49" height="49" as="geometry" />
        </mxCell>
        <mxCell id="cFq3RVqTJRuY4f_RMXQ--303" value="NIL" style="whiteSpace=wrap;html=1;aspect=fixed;" parent="1" vertex="1">
          <mxGeometry x="252" y="1952" width="49" height="49" as="geometry" />
        </mxCell>
        <mxCell id="cFq3RVqTJRuY4f_RMXQ--304" value="u" style="whiteSpace=wrap;html=1;aspect=fixed;" parent="1" vertex="1">
          <mxGeometry x="300.5" y="1952" width="49" height="49" as="geometry" />
        </mxCell>
        <mxCell id="cFq3RVqTJRuY4f_RMXQ--305" value="u" style="whiteSpace=wrap;html=1;aspect=fixed;" parent="1" vertex="1">
          <mxGeometry x="349.5" y="1952" width="49" height="49" as="geometry" />
        </mxCell>
        <mxCell id="cFq3RVqTJRuY4f_RMXQ--306" value="NIL" style="whiteSpace=wrap;html=1;aspect=fixed;" parent="1" vertex="1">
          <mxGeometry x="594" y="1952" width="49" height="49" as="geometry" />
        </mxCell>
        <mxCell id="cFq3RVqTJRuY4f_RMXQ--308" value="u" style="whiteSpace=wrap;html=1;aspect=fixed;" parent="1" vertex="1">
          <mxGeometry x="447" y="1952" width="49" height="49" as="geometry" />
        </mxCell>
        <mxCell id="cFq3RVqTJRuY4f_RMXQ--309" value="u" style="whiteSpace=wrap;html=1;aspect=fixed;" parent="1" vertex="1">
          <mxGeometry x="496" y="1952" width="49" height="49" as="geometry" />
        </mxCell>
        <mxCell id="cFq3RVqTJRuY4f_RMXQ--310" value="NIL" style="whiteSpace=wrap;html=1;aspect=fixed;" parent="1" vertex="1">
          <mxGeometry x="545" y="1952" width="49" height="49" as="geometry" />
        </mxCell>
        <mxCell id="cFq3RVqTJRuY4f_RMXQ--313" value="r" style="whiteSpace=wrap;html=1;aspect=fixed;" parent="1" vertex="1">
          <mxGeometry x="230" y="2824" width="49" height="49" as="geometry" />
        </mxCell>
        <mxCell id="cFq3RVqTJRuY4f_RMXQ--315" value="t" style="whiteSpace=wrap;html=1;aspect=fixed;" parent="1" vertex="1">
          <mxGeometry x="327.5" y="2824" width="49" height="49" as="geometry" />
        </mxCell>
        <mxCell id="cFq3RVqTJRuY4f_RMXQ--316" value="y" style="whiteSpace=wrap;html=1;aspect=fixed;" parent="1" vertex="1">
          <mxGeometry x="572" y="2824" width="49" height="49" as="geometry" />
        </mxCell>
        <mxCell id="cFq3RVqTJRuY4f_RMXQ--317" value="v" style="whiteSpace=wrap;html=1;aspect=fixed;" parent="1" vertex="1">
          <mxGeometry x="425" y="2824" width="49" height="49" as="geometry" />
        </mxCell>
        <mxCell id="cFq3RVqTJRuY4f_RMXQ--318" value="w" style="whiteSpace=wrap;html=1;aspect=fixed;" parent="1" vertex="1">
          <mxGeometry x="474" y="2824" width="49" height="49" as="geometry" />
        </mxCell>
        <mxCell id="cFq3RVqTJRuY4f_RMXQ--319" value="x" style="whiteSpace=wrap;html=1;aspect=fixed;" parent="1" vertex="1">
          <mxGeometry x="523" y="2824" width="49" height="49" as="geometry" />
        </mxCell>
        <mxCell id="cFq3RVqTJRuY4f_RMXQ--320" value="13" style="whiteSpace=wrap;html=1;aspect=fixed;" parent="1" vertex="1">
          <mxGeometry x="230" y="2873" width="49" height="49" as="geometry" />
        </mxCell>
        <mxCell id="cFq3RVqTJRuY4f_RMXQ--322" value="19" style="whiteSpace=wrap;html=1;aspect=fixed;" parent="1" vertex="1">
          <mxGeometry x="327.5" y="2873" width="49" height="49" as="geometry" />
        </mxCell>
        <mxCell id="cFq3RVqTJRuY4f_RMXQ--323" value="∞" style="whiteSpace=wrap;html=1;aspect=fixed;" parent="1" vertex="1">
          <mxGeometry x="572" y="2873" width="49" height="49" as="geometry" />
        </mxCell>
        <mxCell id="cFq3RVqTJRuY4f_RMXQ--324" value="21" style="whiteSpace=wrap;html=1;aspect=fixed;" parent="1" vertex="1">
          <mxGeometry x="425" y="2873" width="49" height="49" as="geometry" />
        </mxCell>
        <mxCell id="cFq3RVqTJRuY4f_RMXQ--325" value="26" style="whiteSpace=wrap;html=1;aspect=fixed;" parent="1" vertex="1">
          <mxGeometry x="474" y="2873" width="49" height="49" as="geometry" />
        </mxCell>
        <mxCell id="cFq3RVqTJRuY4f_RMXQ--326" value="∞" style="whiteSpace=wrap;html=1;aspect=fixed;" parent="1" vertex="1">
          <mxGeometry x="523" y="2873" width="49" height="49" as="geometry" />
        </mxCell>
        <mxCell id="cFq3RVqTJRuY4f_RMXQ--327" value="s" style="whiteSpace=wrap;html=1;aspect=fixed;" parent="1" vertex="1">
          <mxGeometry x="230" y="2922" width="49" height="49" as="geometry" />
        </mxCell>
        <mxCell id="cFq3RVqTJRuY4f_RMXQ--329" value="u" style="whiteSpace=wrap;html=1;aspect=fixed;" parent="1" vertex="1">
          <mxGeometry x="327.5" y="2922" width="49" height="49" as="geometry" />
        </mxCell>
        <mxCell id="cFq3RVqTJRuY4f_RMXQ--330" value="NIL" style="whiteSpace=wrap;html=1;aspect=fixed;" parent="1" vertex="1">
          <mxGeometry x="572" y="2922" width="49" height="49" as="geometry" />
        </mxCell>
        <mxCell id="cFq3RVqTJRuY4f_RMXQ--331" value="u" style="whiteSpace=wrap;html=1;aspect=fixed;" parent="1" vertex="1">
          <mxGeometry x="425" y="2922" width="49" height="49" as="geometry" />
        </mxCell>
        <mxCell id="cFq3RVqTJRuY4f_RMXQ--332" value="u" style="whiteSpace=wrap;html=1;aspect=fixed;" parent="1" vertex="1">
          <mxGeometry x="474" y="2922" width="49" height="49" as="geometry" />
        </mxCell>
        <mxCell id="cFq3RVqTJRuY4f_RMXQ--333" value="NIL" style="whiteSpace=wrap;html=1;aspect=fixed;" parent="1" vertex="1">
          <mxGeometry x="523" y="2922" width="49" height="49" as="geometry" />
        </mxCell>
        <mxCell id="cFq3RVqTJRuY4f_RMXQ--334" style="rounded=0;orthogonalLoop=1;jettySize=auto;html=1;exitX=0;exitY=1;exitDx=0;exitDy=0;entryX=1;entryY=0;entryDx=0;entryDy=0;strokeWidth=3;endArrow=none;endFill=0;" parent="1" source="cFq3RVqTJRuY4f_RMXQ--337" target="cFq3RVqTJRuY4f_RMXQ--350" edge="1">
          <mxGeometry relative="1" as="geometry" />
        </mxCell>
        <mxCell id="cFq3RVqTJRuY4f_RMXQ--335" style="rounded=0;orthogonalLoop=1;jettySize=auto;html=1;exitX=0;exitY=1;exitDx=0;exitDy=0;entryX=0.5;entryY=0;entryDx=0;entryDy=0;endArrow=none;endFill=0;strokeWidth=3;" parent="1" source="cFq3RVqTJRuY4f_RMXQ--337" target="cFq3RVqTJRuY4f_RMXQ--348" edge="1">
          <mxGeometry relative="1" as="geometry" />
        </mxCell>
        <mxCell id="cFq3RVqTJRuY4f_RMXQ--336" style="rounded=0;orthogonalLoop=1;jettySize=auto;html=1;exitX=0;exitY=1;exitDx=0;exitDy=0;entryX=1;entryY=0.5;entryDx=0;entryDy=0;endArrow=none;endFill=0;strokeWidth=12;strokeColor=#ff0000;opacity=50;" parent="1" source="cFq3RVqTJRuY4f_RMXQ--337" target="cFq3RVqTJRuY4f_RMXQ--342" edge="1">
          <mxGeometry relative="1" as="geometry" />
        </mxCell>
        <mxCell id="cFq3RVqTJRuY4f_RMXQ--337" value="&lt;font style=&quot;font-size: 30px;&quot;&gt;u&lt;/font&gt;" style="ellipse;whiteSpace=wrap;html=1;aspect=fixed;fillColor=#F7FF0D;" parent="1" vertex="1">
          <mxGeometry x="653" y="2109" width="80" height="80" as="geometry" />
        </mxCell>
        <mxCell id="cFq3RVqTJRuY4f_RMXQ--338" style="rounded=0;orthogonalLoop=1;jettySize=auto;html=1;exitX=1;exitY=0;exitDx=0;exitDy=0;entryX=0;entryY=1;entryDx=0;entryDy=0;endArrow=none;endFill=0;strokeWidth=3;" parent="1" source="cFq3RVqTJRuY4f_RMXQ--340" target="cFq3RVqTJRuY4f_RMXQ--342" edge="1">
          <mxGeometry relative="1" as="geometry" />
        </mxCell>
        <mxCell id="cFq3RVqTJRuY4f_RMXQ--339" style="rounded=0;orthogonalLoop=1;jettySize=auto;html=1;exitX=1;exitY=0.5;exitDx=0;exitDy=0;entryX=0;entryY=0.5;entryDx=0;entryDy=0;endArrow=none;endFill=0;strokeWidth=3;" parent="1" source="cFq3RVqTJRuY4f_RMXQ--340" target="cFq3RVqTJRuY4f_RMXQ--344" edge="1">
          <mxGeometry relative="1" as="geometry" />
        </mxCell>
        <mxCell id="cFq3RVqTJRuY4f_RMXQ--340" value="&lt;font style=&quot;font-size: 30px;&quot;&gt;r&lt;/font&gt;" style="ellipse;whiteSpace=wrap;html=1;aspect=fixed;" parent="1" vertex="1">
          <mxGeometry x="118" y="2229" width="80" height="80" as="geometry" />
        </mxCell>
        <mxCell id="cFq3RVqTJRuY4f_RMXQ--341" style="rounded=0;orthogonalLoop=1;jettySize=auto;html=1;exitX=1;exitY=0.5;exitDx=0;exitDy=0;entryX=0;entryY=1;entryDx=0;entryDy=0;endArrow=none;endFill=0;strokeWidth=3;" parent="1" source="cFq3RVqTJRuY4f_RMXQ--342" target="cFq3RVqTJRuY4f_RMXQ--337" edge="1">
          <mxGeometry relative="1" as="geometry" />
        </mxCell>
        <mxCell id="cFq3RVqTJRuY4f_RMXQ--361" style="rounded=0;orthogonalLoop=1;jettySize=auto;html=1;exitX=0;exitY=1;exitDx=0;exitDy=0;entryX=1;entryY=0;entryDx=0;entryDy=0;endArrow=none;endFill=0;strokeColor=#ff0000;opacity=50;strokeWidth=12;" parent="1" source="cFq3RVqTJRuY4f_RMXQ--342" target="cFq3RVqTJRuY4f_RMXQ--340" edge="1">
          <mxGeometry relative="1" as="geometry" />
        </mxCell>
        <mxCell id="cFq3RVqTJRuY4f_RMXQ--342" value="&lt;font style=&quot;font-size: 30px;&quot;&gt;s&lt;/font&gt;" style="ellipse;whiteSpace=wrap;html=1;aspect=fixed;fillColor=#F7FF0D;" parent="1" vertex="1">
          <mxGeometry x="198" y="2079" width="80" height="80" as="geometry" />
        </mxCell>
        <mxCell id="cFq3RVqTJRuY4f_RMXQ--343" style="rounded=0;orthogonalLoop=1;jettySize=auto;html=1;exitX=1;exitY=0.5;exitDx=0;exitDy=0;entryX=0;entryY=1;entryDx=0;entryDy=0;endArrow=none;endFill=0;strokeWidth=3;" parent="1" source="cFq3RVqTJRuY4f_RMXQ--344" target="cFq3RVqTJRuY4f_RMXQ--337" edge="1">
          <mxGeometry relative="1" as="geometry" />
        </mxCell>
        <mxCell id="cFq3RVqTJRuY4f_RMXQ--344" value="&lt;font style=&quot;font-size: 30px;&quot;&gt;t&lt;/font&gt;" style="ellipse;whiteSpace=wrap;html=1;aspect=fixed;" parent="1" vertex="1">
          <mxGeometry x="398" y="2219" width="80" height="80" as="geometry" />
        </mxCell>
        <mxCell id="cFq3RVqTJRuY4f_RMXQ--345" value="&lt;font style=&quot;font-size: 30px;&quot;&gt;y&lt;/font&gt;" style="ellipse;whiteSpace=wrap;html=1;aspect=fixed;" parent="1" vertex="1">
          <mxGeometry x="208" y="2409" width="80" height="80" as="geometry" />
        </mxCell>
        <mxCell id="cFq3RVqTJRuY4f_RMXQ--346" style="rounded=0;orthogonalLoop=1;jettySize=auto;html=1;exitX=0;exitY=0.5;exitDx=0;exitDy=0;entryX=1;entryY=0.5;entryDx=0;entryDy=0;strokeWidth=3;endArrow=none;endFill=0;" parent="1" source="cFq3RVqTJRuY4f_RMXQ--348" target="cFq3RVqTJRuY4f_RMXQ--350" edge="1">
          <mxGeometry relative="1" as="geometry" />
        </mxCell>
        <mxCell id="cFq3RVqTJRuY4f_RMXQ--347" style="rounded=0;orthogonalLoop=1;jettySize=auto;html=1;exitX=0;exitY=1;exitDx=0;exitDy=0;entryX=0.5;entryY=0;entryDx=0;entryDy=0;endArrow=none;endFill=0;strokeWidth=4;" parent="1" source="cFq3RVqTJRuY4f_RMXQ--348" target="cFq3RVqTJRuY4f_RMXQ--351" edge="1">
          <mxGeometry relative="1" as="geometry" />
        </mxCell>
        <mxCell id="cFq3RVqTJRuY4f_RMXQ--348" value="&lt;font style=&quot;font-size: 30px;&quot;&gt;v&lt;/font&gt;" style="ellipse;whiteSpace=wrap;html=1;aspect=fixed;" parent="1" vertex="1">
          <mxGeometry x="653" y="2399" width="80" height="80" as="geometry" />
        </mxCell>
        <mxCell id="cFq3RVqTJRuY4f_RMXQ--349" style="rounded=0;orthogonalLoop=1;jettySize=auto;html=1;exitX=0.5;exitY=1;exitDx=0;exitDy=0;entryX=0.5;entryY=0;entryDx=0;entryDy=0;endArrow=none;endFill=0;strokeWidth=3;" parent="1" source="cFq3RVqTJRuY4f_RMXQ--350" target="cFq3RVqTJRuY4f_RMXQ--351" edge="1">
          <mxGeometry relative="1" as="geometry" />
        </mxCell>
        <mxCell id="cFq3RVqTJRuY4f_RMXQ--350" value="&lt;font style=&quot;font-size: 30px;&quot;&gt;w&lt;/font&gt;" style="ellipse;whiteSpace=wrap;html=1;aspect=fixed;" parent="1" vertex="1">
          <mxGeometry x="398" y="2399" width="80" height="80" as="geometry" />
        </mxCell>
        <mxCell id="cFq3RVqTJRuY4f_RMXQ--351" value="&lt;font style=&quot;font-size: 30px;&quot;&gt;x&lt;/font&gt;" style="ellipse;whiteSpace=wrap;html=1;aspect=fixed;" parent="1" vertex="1">
          <mxGeometry x="433" y="2649" width="80" height="80" as="geometry" />
        </mxCell>
        <mxCell id="cFq3RVqTJRuY4f_RMXQ--352" value="&lt;font style=&quot;font-size: 18px;&quot;&gt;13&lt;/font&gt;" style="text;html=1;align=center;verticalAlign=middle;whiteSpace=wrap;rounded=0;" parent="1" vertex="1">
          <mxGeometry x="158" y="2169" width="60" height="30" as="geometry" />
        </mxCell>
        <mxCell id="cFq3RVqTJRuY4f_RMXQ--353" value="&lt;font style=&quot;font-size: 18px;&quot;&gt;17&lt;/font&gt;" style="text;html=1;align=center;verticalAlign=middle;whiteSpace=wrap;rounded=0;" parent="1" vertex="1">
          <mxGeometry x="268" y="2239" width="60" height="30" as="geometry" />
        </mxCell>
        <mxCell id="cFq3RVqTJRuY4f_RMXQ--354" value="&lt;font style=&quot;font-size: 18px;&quot;&gt;16&lt;/font&gt;" style="text;html=1;align=center;verticalAlign=middle;whiteSpace=wrap;rounded=0;" parent="1" vertex="1">
          <mxGeometry x="433" y="2109" width="60" height="30" as="geometry" />
        </mxCell>
        <mxCell id="cFq3RVqTJRuY4f_RMXQ--355" value="&lt;font style=&quot;font-size: 18px;&quot;&gt;19&lt;/font&gt;" style="text;html=1;align=center;verticalAlign=middle;whiteSpace=wrap;rounded=0;" parent="1" vertex="1">
          <mxGeometry x="538" y="2189" width="60" height="30" as="geometry" />
        </mxCell>
        <mxCell id="cFq3RVqTJRuY4f_RMXQ--356" value="&lt;font style=&quot;font-size: 18px;&quot;&gt;21&lt;/font&gt;" style="text;html=1;align=center;verticalAlign=middle;whiteSpace=wrap;rounded=0;" parent="1" vertex="1">
          <mxGeometry x="673" y="2289" width="60" height="30" as="geometry" />
        </mxCell>
        <mxCell id="cFq3RVqTJRuY4f_RMXQ--357" value="&lt;font style=&quot;font-size: 18px;&quot;&gt;26&lt;/font&gt;" style="text;html=1;align=center;verticalAlign=middle;whiteSpace=wrap;rounded=0;" parent="1" vertex="1">
          <mxGeometry x="528" y="2309" width="60" height="30" as="geometry" />
        </mxCell>
        <mxCell id="cFq3RVqTJRuY4f_RMXQ--358" value="&lt;font style=&quot;font-size: 18px;&quot;&gt;17&lt;/font&gt;" style="text;html=1;align=center;verticalAlign=middle;whiteSpace=wrap;rounded=0;" parent="1" vertex="1">
          <mxGeometry x="538" y="2409" width="60" height="30" as="geometry" />
        </mxCell>
        <mxCell id="cFq3RVqTJRuY4f_RMXQ--359" value="&lt;font style=&quot;font-size: 18px;&quot;&gt;17&lt;/font&gt;" style="text;html=1;align=center;verticalAlign=middle;whiteSpace=wrap;rounded=0;" parent="1" vertex="1">
          <mxGeometry x="433" y="2529" width="60" height="30" as="geometry" />
        </mxCell>
        <mxCell id="cFq3RVqTJRuY4f_RMXQ--360" value="&lt;font style=&quot;font-size: 18px;&quot;&gt;13&lt;/font&gt;" style="text;html=1;align=center;verticalAlign=middle;whiteSpace=wrap;rounded=0;" parent="1" vertex="1">
          <mxGeometry x="568" y="2539" width="60" height="30" as="geometry" />
        </mxCell>
        <mxCell id="cFq3RVqTJRuY4f_RMXQ--363" value="t" style="whiteSpace=wrap;html=1;aspect=fixed;" parent="1" vertex="1">
          <mxGeometry x="332.5" y="3750" width="49" height="49" as="geometry" />
        </mxCell>
        <mxCell id="cFq3RVqTJRuY4f_RMXQ--364" value="y" style="whiteSpace=wrap;html=1;aspect=fixed;" parent="1" vertex="1">
          <mxGeometry x="577" y="3750" width="49" height="49" as="geometry" />
        </mxCell>
        <mxCell id="cFq3RVqTJRuY4f_RMXQ--365" value="v" style="whiteSpace=wrap;html=1;aspect=fixed;" parent="1" vertex="1">
          <mxGeometry x="430" y="3750" width="49" height="49" as="geometry" />
        </mxCell>
        <mxCell id="cFq3RVqTJRuY4f_RMXQ--366" value="w" style="whiteSpace=wrap;html=1;aspect=fixed;" parent="1" vertex="1">
          <mxGeometry x="479" y="3750" width="49" height="49" as="geometry" />
        </mxCell>
        <mxCell id="cFq3RVqTJRuY4f_RMXQ--367" value="x" style="whiteSpace=wrap;html=1;aspect=fixed;" parent="1" vertex="1">
          <mxGeometry x="528" y="3750" width="49" height="49" as="geometry" />
        </mxCell>
        <mxCell id="cFq3RVqTJRuY4f_RMXQ--369" value="17" style="whiteSpace=wrap;html=1;aspect=fixed;" parent="1" vertex="1">
          <mxGeometry x="332.5" y="3799" width="49" height="49" as="geometry" />
        </mxCell>
        <mxCell id="cFq3RVqTJRuY4f_RMXQ--370" value="∞" style="whiteSpace=wrap;html=1;aspect=fixed;" parent="1" vertex="1">
          <mxGeometry x="577" y="3799" width="49" height="49" as="geometry" />
        </mxCell>
        <mxCell id="cFq3RVqTJRuY4f_RMXQ--371" value="21" style="whiteSpace=wrap;html=1;aspect=fixed;" parent="1" vertex="1">
          <mxGeometry x="430" y="3799" width="49" height="49" as="geometry" />
        </mxCell>
        <mxCell id="cFq3RVqTJRuY4f_RMXQ--372" value="26" style="whiteSpace=wrap;html=1;aspect=fixed;" parent="1" vertex="1">
          <mxGeometry x="479" y="3799" width="49" height="49" as="geometry" />
        </mxCell>
        <mxCell id="cFq3RVqTJRuY4f_RMXQ--373" value="∞" style="whiteSpace=wrap;html=1;aspect=fixed;" parent="1" vertex="1">
          <mxGeometry x="528" y="3799" width="49" height="49" as="geometry" />
        </mxCell>
        <mxCell id="cFq3RVqTJRuY4f_RMXQ--375" value="r" style="whiteSpace=wrap;html=1;aspect=fixed;" parent="1" vertex="1">
          <mxGeometry x="332.5" y="3848" width="49" height="49" as="geometry" />
        </mxCell>
        <mxCell id="cFq3RVqTJRuY4f_RMXQ--376" value="NIL" style="whiteSpace=wrap;html=1;aspect=fixed;" parent="1" vertex="1">
          <mxGeometry x="577" y="3848" width="49" height="49" as="geometry" />
        </mxCell>
        <mxCell id="cFq3RVqTJRuY4f_RMXQ--377" value="u" style="whiteSpace=wrap;html=1;aspect=fixed;" parent="1" vertex="1">
          <mxGeometry x="430" y="3848" width="49" height="49" as="geometry" />
        </mxCell>
        <mxCell id="cFq3RVqTJRuY4f_RMXQ--378" value="u" style="whiteSpace=wrap;html=1;aspect=fixed;" parent="1" vertex="1">
          <mxGeometry x="479" y="3848" width="49" height="49" as="geometry" />
        </mxCell>
        <mxCell id="cFq3RVqTJRuY4f_RMXQ--379" value="NIL" style="whiteSpace=wrap;html=1;aspect=fixed;" parent="1" vertex="1">
          <mxGeometry x="528" y="3848" width="49" height="49" as="geometry" />
        </mxCell>
        <mxCell id="cFq3RVqTJRuY4f_RMXQ--380" style="rounded=0;orthogonalLoop=1;jettySize=auto;html=1;exitX=0;exitY=1;exitDx=0;exitDy=0;entryX=1;entryY=0;entryDx=0;entryDy=0;strokeWidth=3;endArrow=none;endFill=0;" parent="1" source="cFq3RVqTJRuY4f_RMXQ--383" target="cFq3RVqTJRuY4f_RMXQ--397" edge="1">
          <mxGeometry relative="1" as="geometry" />
        </mxCell>
        <mxCell id="cFq3RVqTJRuY4f_RMXQ--381" style="rounded=0;orthogonalLoop=1;jettySize=auto;html=1;exitX=0;exitY=1;exitDx=0;exitDy=0;entryX=0.5;entryY=0;entryDx=0;entryDy=0;endArrow=none;endFill=0;strokeWidth=3;" parent="1" source="cFq3RVqTJRuY4f_RMXQ--383" target="cFq3RVqTJRuY4f_RMXQ--395" edge="1">
          <mxGeometry relative="1" as="geometry" />
        </mxCell>
        <mxCell id="cFq3RVqTJRuY4f_RMXQ--382" style="rounded=0;orthogonalLoop=1;jettySize=auto;html=1;exitX=0;exitY=1;exitDx=0;exitDy=0;entryX=1;entryY=0.5;entryDx=0;entryDy=0;endArrow=none;endFill=0;strokeWidth=12;strokeColor=#ff0000;opacity=50;" parent="1" source="cFq3RVqTJRuY4f_RMXQ--383" target="cFq3RVqTJRuY4f_RMXQ--389" edge="1">
          <mxGeometry relative="1" as="geometry" />
        </mxCell>
        <mxCell id="cFq3RVqTJRuY4f_RMXQ--383" value="&lt;font style=&quot;font-size: 30px;&quot;&gt;u&lt;/font&gt;" style="ellipse;whiteSpace=wrap;html=1;aspect=fixed;fillColor=#F7FF0D;" parent="1" vertex="1">
          <mxGeometry x="658" y="3035" width="80" height="80" as="geometry" />
        </mxCell>
        <mxCell id="cFq3RVqTJRuY4f_RMXQ--384" style="rounded=0;orthogonalLoop=1;jettySize=auto;html=1;exitX=1;exitY=0;exitDx=0;exitDy=0;entryX=0;entryY=1;entryDx=0;entryDy=0;endArrow=none;endFill=0;strokeWidth=3;" parent="1" source="cFq3RVqTJRuY4f_RMXQ--386" target="cFq3RVqTJRuY4f_RMXQ--389" edge="1">
          <mxGeometry relative="1" as="geometry" />
        </mxCell>
        <mxCell id="cFq3RVqTJRuY4f_RMXQ--385" style="rounded=0;orthogonalLoop=1;jettySize=auto;html=1;exitX=1;exitY=0.5;exitDx=0;exitDy=0;entryX=0;entryY=0.5;entryDx=0;entryDy=0;endArrow=none;endFill=0;strokeWidth=3;" parent="1" source="cFq3RVqTJRuY4f_RMXQ--386" target="cFq3RVqTJRuY4f_RMXQ--391" edge="1">
          <mxGeometry relative="1" as="geometry" />
        </mxCell>
        <mxCell id="cFq3RVqTJRuY4f_RMXQ--408" style="rounded=0;orthogonalLoop=1;jettySize=auto;html=1;exitX=1;exitY=0.5;exitDx=0;exitDy=0;entryX=0;entryY=0.5;entryDx=0;entryDy=0;endArrow=none;endFill=0;strokeWidth=12;strokeColor=#FF0000;opacity=50;" parent="1" source="cFq3RVqTJRuY4f_RMXQ--386" target="cFq3RVqTJRuY4f_RMXQ--391" edge="1">
          <mxGeometry relative="1" as="geometry" />
        </mxCell>
        <mxCell id="cFq3RVqTJRuY4f_RMXQ--386" value="&lt;font style=&quot;font-size: 30px;&quot;&gt;r&lt;/font&gt;" style="ellipse;whiteSpace=wrap;html=1;aspect=fixed;fillColor=#F7FF0D;" parent="1" vertex="1">
          <mxGeometry x="123" y="3155" width="80" height="80" as="geometry" />
        </mxCell>
        <mxCell id="cFq3RVqTJRuY4f_RMXQ--387" style="rounded=0;orthogonalLoop=1;jettySize=auto;html=1;exitX=1;exitY=0.5;exitDx=0;exitDy=0;entryX=0;entryY=1;entryDx=0;entryDy=0;endArrow=none;endFill=0;strokeWidth=3;" parent="1" source="cFq3RVqTJRuY4f_RMXQ--389" target="cFq3RVqTJRuY4f_RMXQ--383" edge="1">
          <mxGeometry relative="1" as="geometry" />
        </mxCell>
        <mxCell id="cFq3RVqTJRuY4f_RMXQ--388" style="rounded=0;orthogonalLoop=1;jettySize=auto;html=1;exitX=0;exitY=1;exitDx=0;exitDy=0;entryX=1;entryY=0;entryDx=0;entryDy=0;endArrow=none;endFill=0;strokeColor=#ff0000;opacity=50;strokeWidth=12;" parent="1" source="cFq3RVqTJRuY4f_RMXQ--389" target="cFq3RVqTJRuY4f_RMXQ--386" edge="1">
          <mxGeometry relative="1" as="geometry" />
        </mxCell>
        <mxCell id="cFq3RVqTJRuY4f_RMXQ--389" value="&lt;font style=&quot;font-size: 30px;&quot;&gt;s&lt;/font&gt;" style="ellipse;whiteSpace=wrap;html=1;aspect=fixed;fillColor=#F7FF0D;" parent="1" vertex="1">
          <mxGeometry x="203" y="3005" width="80" height="80" as="geometry" />
        </mxCell>
        <mxCell id="cFq3RVqTJRuY4f_RMXQ--390" style="rounded=0;orthogonalLoop=1;jettySize=auto;html=1;exitX=1;exitY=0.5;exitDx=0;exitDy=0;entryX=0;entryY=1;entryDx=0;entryDy=0;endArrow=none;endFill=0;strokeWidth=3;" parent="1" source="cFq3RVqTJRuY4f_RMXQ--391" target="cFq3RVqTJRuY4f_RMXQ--383" edge="1">
          <mxGeometry relative="1" as="geometry" />
        </mxCell>
        <mxCell id="cFq3RVqTJRuY4f_RMXQ--391" value="&lt;font style=&quot;font-size: 30px;&quot;&gt;t&lt;/font&gt;" style="ellipse;whiteSpace=wrap;html=1;aspect=fixed;" parent="1" vertex="1">
          <mxGeometry x="403" y="3145" width="80" height="80" as="geometry" />
        </mxCell>
        <mxCell id="cFq3RVqTJRuY4f_RMXQ--392" value="&lt;font style=&quot;font-size: 30px;&quot;&gt;y&lt;/font&gt;" style="ellipse;whiteSpace=wrap;html=1;aspect=fixed;" parent="1" vertex="1">
          <mxGeometry x="213" y="3335" width="80" height="80" as="geometry" />
        </mxCell>
        <mxCell id="cFq3RVqTJRuY4f_RMXQ--393" style="rounded=0;orthogonalLoop=1;jettySize=auto;html=1;exitX=0;exitY=0.5;exitDx=0;exitDy=0;entryX=1;entryY=0.5;entryDx=0;entryDy=0;strokeWidth=3;endArrow=none;endFill=0;" parent="1" source="cFq3RVqTJRuY4f_RMXQ--395" target="cFq3RVqTJRuY4f_RMXQ--397" edge="1">
          <mxGeometry relative="1" as="geometry" />
        </mxCell>
        <mxCell id="cFq3RVqTJRuY4f_RMXQ--394" style="rounded=0;orthogonalLoop=1;jettySize=auto;html=1;exitX=0;exitY=1;exitDx=0;exitDy=0;entryX=0.5;entryY=0;entryDx=0;entryDy=0;endArrow=none;endFill=0;strokeWidth=4;" parent="1" source="cFq3RVqTJRuY4f_RMXQ--395" target="cFq3RVqTJRuY4f_RMXQ--398" edge="1">
          <mxGeometry relative="1" as="geometry" />
        </mxCell>
        <mxCell id="cFq3RVqTJRuY4f_RMXQ--395" value="&lt;font style=&quot;font-size: 30px;&quot;&gt;v&lt;/font&gt;" style="ellipse;whiteSpace=wrap;html=1;aspect=fixed;" parent="1" vertex="1">
          <mxGeometry x="658" y="3325" width="80" height="80" as="geometry" />
        </mxCell>
        <mxCell id="cFq3RVqTJRuY4f_RMXQ--396" style="rounded=0;orthogonalLoop=1;jettySize=auto;html=1;exitX=0.5;exitY=1;exitDx=0;exitDy=0;entryX=0.5;entryY=0;entryDx=0;entryDy=0;endArrow=none;endFill=0;strokeWidth=3;" parent="1" source="cFq3RVqTJRuY4f_RMXQ--397" target="cFq3RVqTJRuY4f_RMXQ--398" edge="1">
          <mxGeometry relative="1" as="geometry" />
        </mxCell>
        <mxCell id="cFq3RVqTJRuY4f_RMXQ--397" value="&lt;font style=&quot;font-size: 30px;&quot;&gt;w&lt;/font&gt;" style="ellipse;whiteSpace=wrap;html=1;aspect=fixed;" parent="1" vertex="1">
          <mxGeometry x="403" y="3325" width="80" height="80" as="geometry" />
        </mxCell>
        <mxCell id="cFq3RVqTJRuY4f_RMXQ--398" value="&lt;font style=&quot;font-size: 30px;&quot;&gt;x&lt;/font&gt;" style="ellipse;whiteSpace=wrap;html=1;aspect=fixed;" parent="1" vertex="1">
          <mxGeometry x="438" y="3575" width="80" height="80" as="geometry" />
        </mxCell>
        <mxCell id="cFq3RVqTJRuY4f_RMXQ--399" value="&lt;font style=&quot;font-size: 18px;&quot;&gt;13&lt;/font&gt;" style="text;html=1;align=center;verticalAlign=middle;whiteSpace=wrap;rounded=0;" parent="1" vertex="1">
          <mxGeometry x="163" y="3095" width="60" height="30" as="geometry" />
        </mxCell>
        <mxCell id="cFq3RVqTJRuY4f_RMXQ--400" value="&lt;font style=&quot;font-size: 18px;&quot;&gt;17&lt;/font&gt;" style="text;html=1;align=center;verticalAlign=middle;whiteSpace=wrap;rounded=0;" parent="1" vertex="1">
          <mxGeometry x="273" y="3165" width="60" height="30" as="geometry" />
        </mxCell>
        <mxCell id="cFq3RVqTJRuY4f_RMXQ--401" value="&lt;font style=&quot;font-size: 18px;&quot;&gt;16&lt;/font&gt;" style="text;html=1;align=center;verticalAlign=middle;whiteSpace=wrap;rounded=0;" parent="1" vertex="1">
          <mxGeometry x="438" y="3035" width="60" height="30" as="geometry" />
        </mxCell>
        <mxCell id="cFq3RVqTJRuY4f_RMXQ--402" value="&lt;font style=&quot;font-size: 18px;&quot;&gt;19&lt;/font&gt;" style="text;html=1;align=center;verticalAlign=middle;whiteSpace=wrap;rounded=0;" parent="1" vertex="1">
          <mxGeometry x="543" y="3115" width="60" height="30" as="geometry" />
        </mxCell>
        <mxCell id="cFq3RVqTJRuY4f_RMXQ--403" value="&lt;font style=&quot;font-size: 18px;&quot;&gt;21&lt;/font&gt;" style="text;html=1;align=center;verticalAlign=middle;whiteSpace=wrap;rounded=0;" parent="1" vertex="1">
          <mxGeometry x="678" y="3215" width="60" height="30" as="geometry" />
        </mxCell>
        <mxCell id="cFq3RVqTJRuY4f_RMXQ--404" value="&lt;font style=&quot;font-size: 18px;&quot;&gt;26&lt;/font&gt;" style="text;html=1;align=center;verticalAlign=middle;whiteSpace=wrap;rounded=0;" parent="1" vertex="1">
          <mxGeometry x="533" y="3235" width="60" height="30" as="geometry" />
        </mxCell>
        <mxCell id="cFq3RVqTJRuY4f_RMXQ--405" value="&lt;font style=&quot;font-size: 18px;&quot;&gt;17&lt;/font&gt;" style="text;html=1;align=center;verticalAlign=middle;whiteSpace=wrap;rounded=0;" parent="1" vertex="1">
          <mxGeometry x="543" y="3335" width="60" height="30" as="geometry" />
        </mxCell>
        <mxCell id="cFq3RVqTJRuY4f_RMXQ--406" value="&lt;font style=&quot;font-size: 18px;&quot;&gt;17&lt;/font&gt;" style="text;html=1;align=center;verticalAlign=middle;whiteSpace=wrap;rounded=0;" parent="1" vertex="1">
          <mxGeometry x="438" y="3455" width="60" height="30" as="geometry" />
        </mxCell>
        <mxCell id="cFq3RVqTJRuY4f_RMXQ--407" value="&lt;font style=&quot;font-size: 18px;&quot;&gt;13&lt;/font&gt;" style="text;html=1;align=center;verticalAlign=middle;whiteSpace=wrap;rounded=0;" parent="1" vertex="1">
          <mxGeometry x="573" y="3465" width="60" height="30" as="geometry" />
        </mxCell>
        <mxCell id="cFq3RVqTJRuY4f_RMXQ--410" value="y" style="whiteSpace=wrap;html=1;aspect=fixed;" parent="1" vertex="1">
          <mxGeometry x="560" y="4732" width="49" height="49" as="geometry" />
        </mxCell>
        <mxCell id="cFq3RVqTJRuY4f_RMXQ--411" value="v" style="whiteSpace=wrap;html=1;aspect=fixed;" parent="1" vertex="1">
          <mxGeometry x="413" y="4732" width="49" height="49" as="geometry" />
        </mxCell>
        <mxCell id="cFq3RVqTJRuY4f_RMXQ--412" value="w" style="whiteSpace=wrap;html=1;aspect=fixed;" parent="1" vertex="1">
          <mxGeometry x="462" y="4732" width="49" height="49" as="geometry" />
        </mxCell>
        <mxCell id="cFq3RVqTJRuY4f_RMXQ--413" value="x" style="whiteSpace=wrap;html=1;aspect=fixed;" parent="1" vertex="1">
          <mxGeometry x="511" y="4732" width="49" height="49" as="geometry" />
        </mxCell>
        <mxCell id="cFq3RVqTJRuY4f_RMXQ--415" value="∞" style="whiteSpace=wrap;html=1;aspect=fixed;" parent="1" vertex="1">
          <mxGeometry x="560" y="4781" width="49" height="49" as="geometry" />
        </mxCell>
        <mxCell id="cFq3RVqTJRuY4f_RMXQ--416" value="21" style="whiteSpace=wrap;html=1;aspect=fixed;" parent="1" vertex="1">
          <mxGeometry x="413" y="4781" width="49" height="49" as="geometry" />
        </mxCell>
        <mxCell id="cFq3RVqTJRuY4f_RMXQ--417" value="26" style="whiteSpace=wrap;html=1;aspect=fixed;" parent="1" vertex="1">
          <mxGeometry x="462" y="4781" width="49" height="49" as="geometry" />
        </mxCell>
        <mxCell id="cFq3RVqTJRuY4f_RMXQ--418" value="∞" style="whiteSpace=wrap;html=1;aspect=fixed;" parent="1" vertex="1">
          <mxGeometry x="511" y="4781" width="49" height="49" as="geometry" />
        </mxCell>
        <mxCell id="cFq3RVqTJRuY4f_RMXQ--420" value="NIL" style="whiteSpace=wrap;html=1;aspect=fixed;" parent="1" vertex="1">
          <mxGeometry x="560" y="4830" width="49" height="49" as="geometry" />
        </mxCell>
        <mxCell id="cFq3RVqTJRuY4f_RMXQ--421" value="u" style="whiteSpace=wrap;html=1;aspect=fixed;" parent="1" vertex="1">
          <mxGeometry x="413" y="4830" width="49" height="49" as="geometry" />
        </mxCell>
        <mxCell id="cFq3RVqTJRuY4f_RMXQ--422" value="u" style="whiteSpace=wrap;html=1;aspect=fixed;" parent="1" vertex="1">
          <mxGeometry x="462" y="4830" width="49" height="49" as="geometry" />
        </mxCell>
        <mxCell id="cFq3RVqTJRuY4f_RMXQ--423" value="NIL" style="whiteSpace=wrap;html=1;aspect=fixed;" parent="1" vertex="1">
          <mxGeometry x="511" y="4830" width="49" height="49" as="geometry" />
        </mxCell>
        <mxCell id="cFq3RVqTJRuY4f_RMXQ--424" style="rounded=0;orthogonalLoop=1;jettySize=auto;html=1;exitX=0;exitY=1;exitDx=0;exitDy=0;entryX=1;entryY=0;entryDx=0;entryDy=0;strokeWidth=3;endArrow=none;endFill=0;" parent="1" source="cFq3RVqTJRuY4f_RMXQ--427" target="cFq3RVqTJRuY4f_RMXQ--442" edge="1">
          <mxGeometry relative="1" as="geometry" />
        </mxCell>
        <mxCell id="cFq3RVqTJRuY4f_RMXQ--425" style="rounded=0;orthogonalLoop=1;jettySize=auto;html=1;exitX=0;exitY=1;exitDx=0;exitDy=0;entryX=0.5;entryY=0;entryDx=0;entryDy=0;endArrow=none;endFill=0;strokeWidth=3;" parent="1" source="cFq3RVqTJRuY4f_RMXQ--427" target="cFq3RVqTJRuY4f_RMXQ--440" edge="1">
          <mxGeometry relative="1" as="geometry" />
        </mxCell>
        <mxCell id="cFq3RVqTJRuY4f_RMXQ--426" style="rounded=0;orthogonalLoop=1;jettySize=auto;html=1;exitX=0;exitY=1;exitDx=0;exitDy=0;entryX=1;entryY=0.5;entryDx=0;entryDy=0;endArrow=none;endFill=0;strokeWidth=12;strokeColor=#ff0000;opacity=50;" parent="1" source="cFq3RVqTJRuY4f_RMXQ--427" target="cFq3RVqTJRuY4f_RMXQ--434" edge="1">
          <mxGeometry relative="1" as="geometry" />
        </mxCell>
        <mxCell id="cFq3RVqTJRuY4f_RMXQ--453" style="rounded=0;orthogonalLoop=1;jettySize=auto;html=1;exitX=0;exitY=1;exitDx=0;exitDy=0;entryX=0.5;entryY=0;entryDx=0;entryDy=0;endArrow=none;endFill=0;strokeColor=#ff0000;strokeWidth=12;opacity=50;" parent="1" source="cFq3RVqTJRuY4f_RMXQ--427" target="cFq3RVqTJRuY4f_RMXQ--440" edge="1">
          <mxGeometry relative="1" as="geometry" />
        </mxCell>
        <mxCell id="cFq3RVqTJRuY4f_RMXQ--427" value="&lt;font style=&quot;font-size: 30px;&quot;&gt;u&lt;/font&gt;" style="ellipse;whiteSpace=wrap;html=1;aspect=fixed;fillColor=#F7FF0D;" parent="1" vertex="1">
          <mxGeometry x="641" y="4017" width="80" height="80" as="geometry" />
        </mxCell>
        <mxCell id="cFq3RVqTJRuY4f_RMXQ--428" style="rounded=0;orthogonalLoop=1;jettySize=auto;html=1;exitX=1;exitY=0;exitDx=0;exitDy=0;entryX=0;entryY=1;entryDx=0;entryDy=0;endArrow=none;endFill=0;strokeWidth=3;" parent="1" source="cFq3RVqTJRuY4f_RMXQ--431" target="cFq3RVqTJRuY4f_RMXQ--434" edge="1">
          <mxGeometry relative="1" as="geometry" />
        </mxCell>
        <mxCell id="cFq3RVqTJRuY4f_RMXQ--429" style="rounded=0;orthogonalLoop=1;jettySize=auto;html=1;exitX=1;exitY=0.5;exitDx=0;exitDy=0;entryX=0;entryY=0.5;entryDx=0;entryDy=0;endArrow=none;endFill=0;strokeWidth=3;" parent="1" source="cFq3RVqTJRuY4f_RMXQ--431" target="cFq3RVqTJRuY4f_RMXQ--436" edge="1">
          <mxGeometry relative="1" as="geometry" />
        </mxCell>
        <mxCell id="cFq3RVqTJRuY4f_RMXQ--430" style="rounded=0;orthogonalLoop=1;jettySize=auto;html=1;exitX=1;exitY=0.5;exitDx=0;exitDy=0;entryX=0;entryY=0.5;entryDx=0;entryDy=0;endArrow=none;endFill=0;strokeWidth=12;strokeColor=#FF0000;opacity=50;" parent="1" source="cFq3RVqTJRuY4f_RMXQ--431" target="cFq3RVqTJRuY4f_RMXQ--436" edge="1">
          <mxGeometry relative="1" as="geometry" />
        </mxCell>
        <mxCell id="cFq3RVqTJRuY4f_RMXQ--431" value="&lt;font style=&quot;font-size: 30px;&quot;&gt;r&lt;/font&gt;" style="ellipse;whiteSpace=wrap;html=1;aspect=fixed;fillColor=#F7FF0D;" parent="1" vertex="1">
          <mxGeometry x="106" y="4137" width="80" height="80" as="geometry" />
        </mxCell>
        <mxCell id="cFq3RVqTJRuY4f_RMXQ--432" style="rounded=0;orthogonalLoop=1;jettySize=auto;html=1;exitX=1;exitY=0.5;exitDx=0;exitDy=0;entryX=0;entryY=1;entryDx=0;entryDy=0;endArrow=none;endFill=0;strokeWidth=3;" parent="1" source="cFq3RVqTJRuY4f_RMXQ--434" target="cFq3RVqTJRuY4f_RMXQ--427" edge="1">
          <mxGeometry relative="1" as="geometry" />
        </mxCell>
        <mxCell id="cFq3RVqTJRuY4f_RMXQ--433" style="rounded=0;orthogonalLoop=1;jettySize=auto;html=1;exitX=0;exitY=1;exitDx=0;exitDy=0;entryX=1;entryY=0;entryDx=0;entryDy=0;endArrow=none;endFill=0;strokeColor=#ff0000;opacity=50;strokeWidth=12;" parent="1" source="cFq3RVqTJRuY4f_RMXQ--434" target="cFq3RVqTJRuY4f_RMXQ--431" edge="1">
          <mxGeometry relative="1" as="geometry" />
        </mxCell>
        <mxCell id="cFq3RVqTJRuY4f_RMXQ--434" value="&lt;font style=&quot;font-size: 30px;&quot;&gt;s&lt;/font&gt;" style="ellipse;whiteSpace=wrap;html=1;aspect=fixed;fillColor=#F7FF0D;" parent="1" vertex="1">
          <mxGeometry x="186" y="3987" width="80" height="80" as="geometry" />
        </mxCell>
        <mxCell id="cFq3RVqTJRuY4f_RMXQ--435" style="rounded=0;orthogonalLoop=1;jettySize=auto;html=1;exitX=1;exitY=0.5;exitDx=0;exitDy=0;entryX=0;entryY=1;entryDx=0;entryDy=0;endArrow=none;endFill=0;strokeWidth=3;" parent="1" source="cFq3RVqTJRuY4f_RMXQ--436" target="cFq3RVqTJRuY4f_RMXQ--427" edge="1">
          <mxGeometry relative="1" as="geometry" />
        </mxCell>
        <mxCell id="cFq3RVqTJRuY4f_RMXQ--436" value="&lt;font style=&quot;font-size: 30px;&quot;&gt;t&lt;/font&gt;" style="ellipse;whiteSpace=wrap;html=1;aspect=fixed;fillColor=#F7FF0D;" parent="1" vertex="1">
          <mxGeometry x="386" y="4127" width="80" height="80" as="geometry" />
        </mxCell>
        <mxCell id="cFq3RVqTJRuY4f_RMXQ--437" value="&lt;font style=&quot;font-size: 30px;&quot;&gt;y&lt;/font&gt;" style="ellipse;whiteSpace=wrap;html=1;aspect=fixed;" parent="1" vertex="1">
          <mxGeometry x="196" y="4317" width="80" height="80" as="geometry" />
        </mxCell>
        <mxCell id="cFq3RVqTJRuY4f_RMXQ--438" style="rounded=0;orthogonalLoop=1;jettySize=auto;html=1;exitX=0;exitY=0.5;exitDx=0;exitDy=0;entryX=1;entryY=0.5;entryDx=0;entryDy=0;strokeWidth=3;endArrow=none;endFill=0;" parent="1" source="cFq3RVqTJRuY4f_RMXQ--440" target="cFq3RVqTJRuY4f_RMXQ--442" edge="1">
          <mxGeometry relative="1" as="geometry" />
        </mxCell>
        <mxCell id="cFq3RVqTJRuY4f_RMXQ--439" style="rounded=0;orthogonalLoop=1;jettySize=auto;html=1;exitX=0;exitY=1;exitDx=0;exitDy=0;entryX=0.5;entryY=0;entryDx=0;entryDy=0;endArrow=none;endFill=0;strokeWidth=4;" parent="1" source="cFq3RVqTJRuY4f_RMXQ--440" target="cFq3RVqTJRuY4f_RMXQ--443" edge="1">
          <mxGeometry relative="1" as="geometry" />
        </mxCell>
        <mxCell id="cFq3RVqTJRuY4f_RMXQ--440" value="&lt;font style=&quot;font-size: 30px;&quot;&gt;v&lt;/font&gt;" style="ellipse;whiteSpace=wrap;html=1;aspect=fixed;" parent="1" vertex="1">
          <mxGeometry x="641" y="4307" width="80" height="80" as="geometry" />
        </mxCell>
        <mxCell id="cFq3RVqTJRuY4f_RMXQ--441" style="rounded=0;orthogonalLoop=1;jettySize=auto;html=1;exitX=0.5;exitY=1;exitDx=0;exitDy=0;entryX=0.5;entryY=0;entryDx=0;entryDy=0;endArrow=none;endFill=0;strokeWidth=3;" parent="1" source="cFq3RVqTJRuY4f_RMXQ--442" target="cFq3RVqTJRuY4f_RMXQ--443" edge="1">
          <mxGeometry relative="1" as="geometry" />
        </mxCell>
        <mxCell id="cFq3RVqTJRuY4f_RMXQ--442" value="&lt;font style=&quot;font-size: 30px;&quot;&gt;w&lt;/font&gt;" style="ellipse;whiteSpace=wrap;html=1;aspect=fixed;" parent="1" vertex="1">
          <mxGeometry x="386" y="4307" width="80" height="80" as="geometry" />
        </mxCell>
        <mxCell id="cFq3RVqTJRuY4f_RMXQ--443" value="&lt;font style=&quot;font-size: 30px;&quot;&gt;x&lt;/font&gt;" style="ellipse;whiteSpace=wrap;html=1;aspect=fixed;" parent="1" vertex="1">
          <mxGeometry x="421" y="4557" width="80" height="80" as="geometry" />
        </mxCell>
        <mxCell id="cFq3RVqTJRuY4f_RMXQ--444" value="&lt;font style=&quot;font-size: 18px;&quot;&gt;13&lt;/font&gt;" style="text;html=1;align=center;verticalAlign=middle;whiteSpace=wrap;rounded=0;" parent="1" vertex="1">
          <mxGeometry x="146" y="4077" width="60" height="30" as="geometry" />
        </mxCell>
        <mxCell id="cFq3RVqTJRuY4f_RMXQ--445" value="&lt;font style=&quot;font-size: 18px;&quot;&gt;17&lt;/font&gt;" style="text;html=1;align=center;verticalAlign=middle;whiteSpace=wrap;rounded=0;" parent="1" vertex="1">
          <mxGeometry x="256" y="4147" width="60" height="30" as="geometry" />
        </mxCell>
        <mxCell id="cFq3RVqTJRuY4f_RMXQ--446" value="&lt;font style=&quot;font-size: 18px;&quot;&gt;16&lt;/font&gt;" style="text;html=1;align=center;verticalAlign=middle;whiteSpace=wrap;rounded=0;" parent="1" vertex="1">
          <mxGeometry x="421" y="4017" width="60" height="30" as="geometry" />
        </mxCell>
        <mxCell id="cFq3RVqTJRuY4f_RMXQ--447" value="&lt;font style=&quot;font-size: 18px;&quot;&gt;19&lt;/font&gt;" style="text;html=1;align=center;verticalAlign=middle;whiteSpace=wrap;rounded=0;" parent="1" vertex="1">
          <mxGeometry x="526" y="4097" width="60" height="30" as="geometry" />
        </mxCell>
        <mxCell id="cFq3RVqTJRuY4f_RMXQ--448" value="&lt;font style=&quot;font-size: 18px;&quot;&gt;21&lt;/font&gt;" style="text;html=1;align=center;verticalAlign=middle;whiteSpace=wrap;rounded=0;" parent="1" vertex="1">
          <mxGeometry x="661" y="4197" width="60" height="30" as="geometry" />
        </mxCell>
        <mxCell id="cFq3RVqTJRuY4f_RMXQ--449" value="&lt;font style=&quot;font-size: 18px;&quot;&gt;26&lt;/font&gt;" style="text;html=1;align=center;verticalAlign=middle;whiteSpace=wrap;rounded=0;" parent="1" vertex="1">
          <mxGeometry x="516" y="4217" width="60" height="30" as="geometry" />
        </mxCell>
        <mxCell id="cFq3RVqTJRuY4f_RMXQ--450" value="&lt;font style=&quot;font-size: 18px;&quot;&gt;17&lt;/font&gt;" style="text;html=1;align=center;verticalAlign=middle;whiteSpace=wrap;rounded=0;" parent="1" vertex="1">
          <mxGeometry x="526" y="4317" width="60" height="30" as="geometry" />
        </mxCell>
        <mxCell id="cFq3RVqTJRuY4f_RMXQ--451" value="&lt;font style=&quot;font-size: 18px;&quot;&gt;17&lt;/font&gt;" style="text;html=1;align=center;verticalAlign=middle;whiteSpace=wrap;rounded=0;" parent="1" vertex="1">
          <mxGeometry x="421" y="4437" width="60" height="30" as="geometry" />
        </mxCell>
        <mxCell id="cFq3RVqTJRuY4f_RMXQ--452" value="&lt;font style=&quot;font-size: 18px;&quot;&gt;13&lt;/font&gt;" style="text;html=1;align=center;verticalAlign=middle;whiteSpace=wrap;rounded=0;" parent="1" vertex="1">
          <mxGeometry x="556" y="4447" width="60" height="30" as="geometry" />
        </mxCell>
        <mxCell id="cFq3RVqTJRuY4f_RMXQ--454" value="y" style="whiteSpace=wrap;html=1;aspect=fixed;" parent="1" vertex="1">
          <mxGeometry x="581" y="5691" width="49" height="49" as="geometry" />
        </mxCell>
        <mxCell id="cFq3RVqTJRuY4f_RMXQ--456" value="w" style="whiteSpace=wrap;html=1;aspect=fixed;" parent="1" vertex="1">
          <mxGeometry x="483" y="5691" width="49" height="49" as="geometry" />
        </mxCell>
        <mxCell id="cFq3RVqTJRuY4f_RMXQ--457" value="x" style="whiteSpace=wrap;html=1;aspect=fixed;" parent="1" vertex="1">
          <mxGeometry x="532" y="5691" width="49" height="49" as="geometry" />
        </mxCell>
        <mxCell id="cFq3RVqTJRuY4f_RMXQ--458" value="∞" style="whiteSpace=wrap;html=1;aspect=fixed;" parent="1" vertex="1">
          <mxGeometry x="581" y="5740" width="49" height="49" as="geometry" />
        </mxCell>
        <mxCell id="cFq3RVqTJRuY4f_RMXQ--460" value="17" style="whiteSpace=wrap;html=1;aspect=fixed;" parent="1" vertex="1">
          <mxGeometry x="483" y="5740" width="49" height="49" as="geometry" />
        </mxCell>
        <mxCell id="cFq3RVqTJRuY4f_RMXQ--461" value="13" style="whiteSpace=wrap;html=1;aspect=fixed;" parent="1" vertex="1">
          <mxGeometry x="532" y="5740" width="49" height="49" as="geometry" />
        </mxCell>
        <mxCell id="cFq3RVqTJRuY4f_RMXQ--462" value="NIL" style="whiteSpace=wrap;html=1;aspect=fixed;" parent="1" vertex="1">
          <mxGeometry x="581" y="5789" width="49" height="49" as="geometry" />
        </mxCell>
        <mxCell id="cFq3RVqTJRuY4f_RMXQ--464" value="v" style="whiteSpace=wrap;html=1;aspect=fixed;" parent="1" vertex="1">
          <mxGeometry x="483" y="5789" width="49" height="49" as="geometry" />
        </mxCell>
        <mxCell id="cFq3RVqTJRuY4f_RMXQ--465" value="v" style="whiteSpace=wrap;html=1;aspect=fixed;" parent="1" vertex="1">
          <mxGeometry x="532" y="5789" width="49" height="49" as="geometry" />
        </mxCell>
        <mxCell id="cFq3RVqTJRuY4f_RMXQ--466" style="rounded=0;orthogonalLoop=1;jettySize=auto;html=1;exitX=0;exitY=1;exitDx=0;exitDy=0;entryX=1;entryY=0;entryDx=0;entryDy=0;strokeWidth=3;endArrow=none;endFill=0;" parent="1" source="cFq3RVqTJRuY4f_RMXQ--470" target="cFq3RVqTJRuY4f_RMXQ--485" edge="1">
          <mxGeometry relative="1" as="geometry" />
        </mxCell>
        <mxCell id="cFq3RVqTJRuY4f_RMXQ--467" style="rounded=0;orthogonalLoop=1;jettySize=auto;html=1;exitX=0;exitY=1;exitDx=0;exitDy=0;entryX=0.5;entryY=0;entryDx=0;entryDy=0;endArrow=none;endFill=0;strokeWidth=3;" parent="1" source="cFq3RVqTJRuY4f_RMXQ--470" target="cFq3RVqTJRuY4f_RMXQ--483" edge="1">
          <mxGeometry relative="1" as="geometry" />
        </mxCell>
        <mxCell id="cFq3RVqTJRuY4f_RMXQ--468" style="rounded=0;orthogonalLoop=1;jettySize=auto;html=1;exitX=0;exitY=1;exitDx=0;exitDy=0;entryX=1;entryY=0.5;entryDx=0;entryDy=0;endArrow=none;endFill=0;strokeWidth=12;strokeColor=#ff0000;opacity=50;" parent="1" source="cFq3RVqTJRuY4f_RMXQ--470" target="cFq3RVqTJRuY4f_RMXQ--477" edge="1">
          <mxGeometry relative="1" as="geometry" />
        </mxCell>
        <mxCell id="cFq3RVqTJRuY4f_RMXQ--469" style="rounded=0;orthogonalLoop=1;jettySize=auto;html=1;exitX=0;exitY=1;exitDx=0;exitDy=0;entryX=0.5;entryY=0;entryDx=0;entryDy=0;endArrow=none;endFill=0;strokeColor=#ff0000;strokeWidth=12;opacity=50;" parent="1" source="cFq3RVqTJRuY4f_RMXQ--470" target="cFq3RVqTJRuY4f_RMXQ--483" edge="1">
          <mxGeometry relative="1" as="geometry" />
        </mxCell>
        <mxCell id="cFq3RVqTJRuY4f_RMXQ--470" value="&lt;font style=&quot;font-size: 30px;&quot;&gt;u&lt;/font&gt;" style="ellipse;whiteSpace=wrap;html=1;aspect=fixed;fillColor=#F7FF0D;" parent="1" vertex="1">
          <mxGeometry x="662" y="4976" width="80" height="80" as="geometry" />
        </mxCell>
        <mxCell id="cFq3RVqTJRuY4f_RMXQ--471" style="rounded=0;orthogonalLoop=1;jettySize=auto;html=1;exitX=1;exitY=0;exitDx=0;exitDy=0;entryX=0;entryY=1;entryDx=0;entryDy=0;endArrow=none;endFill=0;strokeWidth=3;" parent="1" source="cFq3RVqTJRuY4f_RMXQ--474" target="cFq3RVqTJRuY4f_RMXQ--477" edge="1">
          <mxGeometry relative="1" as="geometry" />
        </mxCell>
        <mxCell id="cFq3RVqTJRuY4f_RMXQ--472" style="rounded=0;orthogonalLoop=1;jettySize=auto;html=1;exitX=1;exitY=0.5;exitDx=0;exitDy=0;entryX=0;entryY=0.5;entryDx=0;entryDy=0;endArrow=none;endFill=0;strokeWidth=3;" parent="1" source="cFq3RVqTJRuY4f_RMXQ--474" target="cFq3RVqTJRuY4f_RMXQ--479" edge="1">
          <mxGeometry relative="1" as="geometry" />
        </mxCell>
        <mxCell id="cFq3RVqTJRuY4f_RMXQ--473" style="rounded=0;orthogonalLoop=1;jettySize=auto;html=1;exitX=1;exitY=0.5;exitDx=0;exitDy=0;entryX=0;entryY=0.5;entryDx=0;entryDy=0;endArrow=none;endFill=0;strokeWidth=12;strokeColor=#FF0000;opacity=50;" parent="1" source="cFq3RVqTJRuY4f_RMXQ--474" target="cFq3RVqTJRuY4f_RMXQ--479" edge="1">
          <mxGeometry relative="1" as="geometry" />
        </mxCell>
        <mxCell id="cFq3RVqTJRuY4f_RMXQ--474" value="&lt;font style=&quot;font-size: 30px;&quot;&gt;r&lt;/font&gt;" style="ellipse;whiteSpace=wrap;html=1;aspect=fixed;fillColor=#F7FF0D;" parent="1" vertex="1">
          <mxGeometry x="127" y="5096" width="80" height="80" as="geometry" />
        </mxCell>
        <mxCell id="cFq3RVqTJRuY4f_RMXQ--475" style="rounded=0;orthogonalLoop=1;jettySize=auto;html=1;exitX=1;exitY=0.5;exitDx=0;exitDy=0;entryX=0;entryY=1;entryDx=0;entryDy=0;endArrow=none;endFill=0;strokeWidth=3;" parent="1" source="cFq3RVqTJRuY4f_RMXQ--477" target="cFq3RVqTJRuY4f_RMXQ--470" edge="1">
          <mxGeometry relative="1" as="geometry" />
        </mxCell>
        <mxCell id="cFq3RVqTJRuY4f_RMXQ--476" style="rounded=0;orthogonalLoop=1;jettySize=auto;html=1;exitX=0;exitY=1;exitDx=0;exitDy=0;entryX=1;entryY=0;entryDx=0;entryDy=0;endArrow=none;endFill=0;strokeColor=#ff0000;opacity=50;strokeWidth=12;" parent="1" source="cFq3RVqTJRuY4f_RMXQ--477" target="cFq3RVqTJRuY4f_RMXQ--474" edge="1">
          <mxGeometry relative="1" as="geometry" />
        </mxCell>
        <mxCell id="cFq3RVqTJRuY4f_RMXQ--477" value="&lt;font style=&quot;font-size: 30px;&quot;&gt;s&lt;/font&gt;" style="ellipse;whiteSpace=wrap;html=1;aspect=fixed;fillColor=#F7FF0D;" parent="1" vertex="1">
          <mxGeometry x="207" y="4946" width="80" height="80" as="geometry" />
        </mxCell>
        <mxCell id="cFq3RVqTJRuY4f_RMXQ--478" style="rounded=0;orthogonalLoop=1;jettySize=auto;html=1;exitX=1;exitY=0.5;exitDx=0;exitDy=0;entryX=0;entryY=1;entryDx=0;entryDy=0;endArrow=none;endFill=0;strokeWidth=3;" parent="1" source="cFq3RVqTJRuY4f_RMXQ--479" target="cFq3RVqTJRuY4f_RMXQ--470" edge="1">
          <mxGeometry relative="1" as="geometry" />
        </mxCell>
        <mxCell id="cFq3RVqTJRuY4f_RMXQ--479" value="&lt;font style=&quot;font-size: 30px;&quot;&gt;t&lt;/font&gt;" style="ellipse;whiteSpace=wrap;html=1;aspect=fixed;fillColor=#F7FF0D;" parent="1" vertex="1">
          <mxGeometry x="407" y="5086" width="80" height="80" as="geometry" />
        </mxCell>
        <mxCell id="cFq3RVqTJRuY4f_RMXQ--480" value="&lt;font style=&quot;font-size: 30px;&quot;&gt;y&lt;/font&gt;" style="ellipse;whiteSpace=wrap;html=1;aspect=fixed;" parent="1" vertex="1">
          <mxGeometry x="217" y="5276" width="80" height="80" as="geometry" />
        </mxCell>
        <mxCell id="cFq3RVqTJRuY4f_RMXQ--481" style="rounded=0;orthogonalLoop=1;jettySize=auto;html=1;exitX=0;exitY=0.5;exitDx=0;exitDy=0;entryX=1;entryY=0.5;entryDx=0;entryDy=0;strokeWidth=3;endArrow=none;endFill=0;" parent="1" source="cFq3RVqTJRuY4f_RMXQ--483" target="cFq3RVqTJRuY4f_RMXQ--485" edge="1">
          <mxGeometry relative="1" as="geometry" />
        </mxCell>
        <mxCell id="cFq3RVqTJRuY4f_RMXQ--482" style="rounded=0;orthogonalLoop=1;jettySize=auto;html=1;exitX=0;exitY=1;exitDx=0;exitDy=0;entryX=0.5;entryY=0;entryDx=0;entryDy=0;endArrow=none;endFill=0;strokeWidth=4;" parent="1" source="cFq3RVqTJRuY4f_RMXQ--483" target="cFq3RVqTJRuY4f_RMXQ--486" edge="1">
          <mxGeometry relative="1" as="geometry" />
        </mxCell>
        <mxCell id="cFq3RVqTJRuY4f_RMXQ--496" style="rounded=0;orthogonalLoop=1;jettySize=auto;html=1;exitX=0;exitY=1;exitDx=0;exitDy=0;entryX=0.5;entryY=0;entryDx=0;entryDy=0;endArrow=none;endFill=0;strokeColor=#ff0000;opacity=50;strokeWidth=12;" parent="1" source="cFq3RVqTJRuY4f_RMXQ--483" target="cFq3RVqTJRuY4f_RMXQ--486" edge="1">
          <mxGeometry relative="1" as="geometry" />
        </mxCell>
        <mxCell id="cFq3RVqTJRuY4f_RMXQ--483" value="&lt;font style=&quot;font-size: 30px;&quot;&gt;v&lt;/font&gt;" style="ellipse;whiteSpace=wrap;html=1;aspect=fixed;gradientColor=none;fillColor=#F7FF0D;" parent="1" vertex="1">
          <mxGeometry x="662" y="5266" width="80" height="80" as="geometry" />
        </mxCell>
        <mxCell id="cFq3RVqTJRuY4f_RMXQ--484" style="rounded=0;orthogonalLoop=1;jettySize=auto;html=1;exitX=0.5;exitY=1;exitDx=0;exitDy=0;entryX=0.5;entryY=0;entryDx=0;entryDy=0;endArrow=none;endFill=0;strokeWidth=3;" parent="1" source="cFq3RVqTJRuY4f_RMXQ--485" target="cFq3RVqTJRuY4f_RMXQ--486" edge="1">
          <mxGeometry relative="1" as="geometry" />
        </mxCell>
        <mxCell id="cFq3RVqTJRuY4f_RMXQ--485" value="&lt;font style=&quot;font-size: 30px;&quot;&gt;w&lt;/font&gt;" style="ellipse;whiteSpace=wrap;html=1;aspect=fixed;" parent="1" vertex="1">
          <mxGeometry x="407" y="5266" width="80" height="80" as="geometry" />
        </mxCell>
        <mxCell id="cFq3RVqTJRuY4f_RMXQ--486" value="&lt;font style=&quot;font-size: 30px;&quot;&gt;x&lt;/font&gt;" style="ellipse;whiteSpace=wrap;html=1;aspect=fixed;" parent="1" vertex="1">
          <mxGeometry x="442" y="5516" width="80" height="80" as="geometry" />
        </mxCell>
        <mxCell id="cFq3RVqTJRuY4f_RMXQ--487" value="&lt;font style=&quot;font-size: 18px;&quot;&gt;13&lt;/font&gt;" style="text;html=1;align=center;verticalAlign=middle;whiteSpace=wrap;rounded=0;" parent="1" vertex="1">
          <mxGeometry x="167" y="5036" width="60" height="30" as="geometry" />
        </mxCell>
        <mxCell id="cFq3RVqTJRuY4f_RMXQ--488" value="&lt;font style=&quot;font-size: 18px;&quot;&gt;17&lt;/font&gt;" style="text;html=1;align=center;verticalAlign=middle;whiteSpace=wrap;rounded=0;" parent="1" vertex="1">
          <mxGeometry x="277" y="5106" width="60" height="30" as="geometry" />
        </mxCell>
        <mxCell id="cFq3RVqTJRuY4f_RMXQ--489" value="&lt;font style=&quot;font-size: 18px;&quot;&gt;16&lt;/font&gt;" style="text;html=1;align=center;verticalAlign=middle;whiteSpace=wrap;rounded=0;" parent="1" vertex="1">
          <mxGeometry x="442" y="4976" width="60" height="30" as="geometry" />
        </mxCell>
        <mxCell id="cFq3RVqTJRuY4f_RMXQ--490" value="&lt;font style=&quot;font-size: 18px;&quot;&gt;19&lt;/font&gt;" style="text;html=1;align=center;verticalAlign=middle;whiteSpace=wrap;rounded=0;" parent="1" vertex="1">
          <mxGeometry x="547" y="5056" width="60" height="30" as="geometry" />
        </mxCell>
        <mxCell id="cFq3RVqTJRuY4f_RMXQ--491" value="&lt;font style=&quot;font-size: 18px;&quot;&gt;21&lt;/font&gt;" style="text;html=1;align=center;verticalAlign=middle;whiteSpace=wrap;rounded=0;" parent="1" vertex="1">
          <mxGeometry x="682" y="5156" width="60" height="30" as="geometry" />
        </mxCell>
        <mxCell id="cFq3RVqTJRuY4f_RMXQ--492" value="&lt;font style=&quot;font-size: 18px;&quot;&gt;26&lt;/font&gt;" style="text;html=1;align=center;verticalAlign=middle;whiteSpace=wrap;rounded=0;" parent="1" vertex="1">
          <mxGeometry x="537" y="5176" width="60" height="30" as="geometry" />
        </mxCell>
        <mxCell id="cFq3RVqTJRuY4f_RMXQ--493" value="&lt;font style=&quot;font-size: 18px;&quot;&gt;17&lt;/font&gt;" style="text;html=1;align=center;verticalAlign=middle;whiteSpace=wrap;rounded=0;" parent="1" vertex="1">
          <mxGeometry x="547" y="5276" width="60" height="30" as="geometry" />
        </mxCell>
        <mxCell id="cFq3RVqTJRuY4f_RMXQ--494" value="&lt;font style=&quot;font-size: 18px;&quot;&gt;17&lt;/font&gt;" style="text;html=1;align=center;verticalAlign=middle;whiteSpace=wrap;rounded=0;" parent="1" vertex="1">
          <mxGeometry x="442" y="5396" width="60" height="30" as="geometry" />
        </mxCell>
        <mxCell id="cFq3RVqTJRuY4f_RMXQ--495" value="&lt;font style=&quot;font-size: 18px;&quot;&gt;13&lt;/font&gt;" style="text;html=1;align=center;verticalAlign=middle;whiteSpace=wrap;rounded=0;" parent="1" vertex="1">
          <mxGeometry x="577" y="5406" width="60" height="30" as="geometry" />
        </mxCell>
        <mxCell id="cFq3RVqTJRuY4f_RMXQ--497" value="y" style="whiteSpace=wrap;html=1;aspect=fixed;" parent="1" vertex="1">
          <mxGeometry x="593.5" y="6628" width="49" height="49" as="geometry" />
        </mxCell>
        <mxCell id="cFq3RVqTJRuY4f_RMXQ--498" value="w" style="whiteSpace=wrap;html=1;aspect=fixed;" parent="1" vertex="1">
          <mxGeometry x="495.5" y="6628" width="49" height="49" as="geometry" />
        </mxCell>
        <mxCell id="cFq3RVqTJRuY4f_RMXQ--500" value="∞" style="whiteSpace=wrap;html=1;aspect=fixed;" parent="1" vertex="1">
          <mxGeometry x="593.5" y="6677" width="49" height="49" as="geometry" />
        </mxCell>
        <mxCell id="cFq3RVqTJRuY4f_RMXQ--501" value="17" style="whiteSpace=wrap;html=1;aspect=fixed;" parent="1" vertex="1">
          <mxGeometry x="495.5" y="6677" width="49" height="49" as="geometry" />
        </mxCell>
        <mxCell id="cFq3RVqTJRuY4f_RMXQ--503" value="NIL" style="whiteSpace=wrap;html=1;aspect=fixed;" parent="1" vertex="1">
          <mxGeometry x="593.5" y="6726" width="49" height="49" as="geometry" />
        </mxCell>
        <mxCell id="cFq3RVqTJRuY4f_RMXQ--504" value="v" style="whiteSpace=wrap;html=1;aspect=fixed;" parent="1" vertex="1">
          <mxGeometry x="495.5" y="6726" width="49" height="49" as="geometry" />
        </mxCell>
        <mxCell id="cFq3RVqTJRuY4f_RMXQ--506" style="rounded=0;orthogonalLoop=1;jettySize=auto;html=1;exitX=0;exitY=1;exitDx=0;exitDy=0;entryX=1;entryY=0;entryDx=0;entryDy=0;strokeWidth=3;endArrow=none;endFill=0;" parent="1" source="cFq3RVqTJRuY4f_RMXQ--510" target="cFq3RVqTJRuY4f_RMXQ--526" edge="1">
          <mxGeometry relative="1" as="geometry" />
        </mxCell>
        <mxCell id="cFq3RVqTJRuY4f_RMXQ--507" style="rounded=0;orthogonalLoop=1;jettySize=auto;html=1;exitX=0;exitY=1;exitDx=0;exitDy=0;entryX=0.5;entryY=0;entryDx=0;entryDy=0;endArrow=none;endFill=0;strokeWidth=3;" parent="1" source="cFq3RVqTJRuY4f_RMXQ--510" target="cFq3RVqTJRuY4f_RMXQ--524" edge="1">
          <mxGeometry relative="1" as="geometry" />
        </mxCell>
        <mxCell id="cFq3RVqTJRuY4f_RMXQ--508" style="rounded=0;orthogonalLoop=1;jettySize=auto;html=1;exitX=0;exitY=1;exitDx=0;exitDy=0;entryX=1;entryY=0.5;entryDx=0;entryDy=0;endArrow=none;endFill=0;strokeWidth=12;strokeColor=#ff0000;opacity=50;" parent="1" source="cFq3RVqTJRuY4f_RMXQ--510" target="cFq3RVqTJRuY4f_RMXQ--517" edge="1">
          <mxGeometry relative="1" as="geometry" />
        </mxCell>
        <mxCell id="cFq3RVqTJRuY4f_RMXQ--509" style="rounded=0;orthogonalLoop=1;jettySize=auto;html=1;exitX=0;exitY=1;exitDx=0;exitDy=0;entryX=0.5;entryY=0;entryDx=0;entryDy=0;endArrow=none;endFill=0;strokeColor=#ff0000;strokeWidth=12;opacity=50;" parent="1" source="cFq3RVqTJRuY4f_RMXQ--510" target="cFq3RVqTJRuY4f_RMXQ--524" edge="1">
          <mxGeometry relative="1" as="geometry" />
        </mxCell>
        <mxCell id="cFq3RVqTJRuY4f_RMXQ--510" value="&lt;font style=&quot;font-size: 30px;&quot;&gt;u&lt;/font&gt;" style="ellipse;whiteSpace=wrap;html=1;aspect=fixed;fillColor=#F7FF0D;" parent="1" vertex="1">
          <mxGeometry x="674.5" y="5913" width="80" height="80" as="geometry" />
        </mxCell>
        <mxCell id="cFq3RVqTJRuY4f_RMXQ--511" style="rounded=0;orthogonalLoop=1;jettySize=auto;html=1;exitX=1;exitY=0;exitDx=0;exitDy=0;entryX=0;entryY=1;entryDx=0;entryDy=0;endArrow=none;endFill=0;strokeWidth=3;" parent="1" source="cFq3RVqTJRuY4f_RMXQ--514" target="cFq3RVqTJRuY4f_RMXQ--517" edge="1">
          <mxGeometry relative="1" as="geometry" />
        </mxCell>
        <mxCell id="cFq3RVqTJRuY4f_RMXQ--512" style="rounded=0;orthogonalLoop=1;jettySize=auto;html=1;exitX=1;exitY=0.5;exitDx=0;exitDy=0;entryX=0;entryY=0.5;entryDx=0;entryDy=0;endArrow=none;endFill=0;strokeWidth=3;" parent="1" source="cFq3RVqTJRuY4f_RMXQ--514" target="cFq3RVqTJRuY4f_RMXQ--519" edge="1">
          <mxGeometry relative="1" as="geometry" />
        </mxCell>
        <mxCell id="cFq3RVqTJRuY4f_RMXQ--513" style="rounded=0;orthogonalLoop=1;jettySize=auto;html=1;exitX=1;exitY=0.5;exitDx=0;exitDy=0;entryX=0;entryY=0.5;entryDx=0;entryDy=0;endArrow=none;endFill=0;strokeWidth=12;strokeColor=#FF0000;opacity=50;" parent="1" source="cFq3RVqTJRuY4f_RMXQ--514" target="cFq3RVqTJRuY4f_RMXQ--519" edge="1">
          <mxGeometry relative="1" as="geometry" />
        </mxCell>
        <mxCell id="cFq3RVqTJRuY4f_RMXQ--514" value="&lt;font style=&quot;font-size: 30px;&quot;&gt;r&lt;/font&gt;" style="ellipse;whiteSpace=wrap;html=1;aspect=fixed;fillColor=#F7FF0D;" parent="1" vertex="1">
          <mxGeometry x="139.5" y="6033" width="80" height="80" as="geometry" />
        </mxCell>
        <mxCell id="cFq3RVqTJRuY4f_RMXQ--515" style="rounded=0;orthogonalLoop=1;jettySize=auto;html=1;exitX=1;exitY=0.5;exitDx=0;exitDy=0;entryX=0;entryY=1;entryDx=0;entryDy=0;endArrow=none;endFill=0;strokeWidth=3;" parent="1" source="cFq3RVqTJRuY4f_RMXQ--517" target="cFq3RVqTJRuY4f_RMXQ--510" edge="1">
          <mxGeometry relative="1" as="geometry" />
        </mxCell>
        <mxCell id="cFq3RVqTJRuY4f_RMXQ--516" style="rounded=0;orthogonalLoop=1;jettySize=auto;html=1;exitX=0;exitY=1;exitDx=0;exitDy=0;entryX=1;entryY=0;entryDx=0;entryDy=0;endArrow=none;endFill=0;strokeColor=#ff0000;opacity=50;strokeWidth=12;" parent="1" source="cFq3RVqTJRuY4f_RMXQ--517" target="cFq3RVqTJRuY4f_RMXQ--514" edge="1">
          <mxGeometry relative="1" as="geometry" />
        </mxCell>
        <mxCell id="cFq3RVqTJRuY4f_RMXQ--517" value="&lt;font style=&quot;font-size: 30px;&quot;&gt;s&lt;/font&gt;" style="ellipse;whiteSpace=wrap;html=1;aspect=fixed;fillColor=#F7FF0D;" parent="1" vertex="1">
          <mxGeometry x="219.5" y="5883" width="80" height="80" as="geometry" />
        </mxCell>
        <mxCell id="cFq3RVqTJRuY4f_RMXQ--518" style="rounded=0;orthogonalLoop=1;jettySize=auto;html=1;exitX=1;exitY=0.5;exitDx=0;exitDy=0;entryX=0;entryY=1;entryDx=0;entryDy=0;endArrow=none;endFill=0;strokeWidth=3;" parent="1" source="cFq3RVqTJRuY4f_RMXQ--519" target="cFq3RVqTJRuY4f_RMXQ--510" edge="1">
          <mxGeometry relative="1" as="geometry" />
        </mxCell>
        <mxCell id="cFq3RVqTJRuY4f_RMXQ--519" value="&lt;font style=&quot;font-size: 30px;&quot;&gt;t&lt;/font&gt;" style="ellipse;whiteSpace=wrap;html=1;aspect=fixed;fillColor=#F7FF0D;" parent="1" vertex="1">
          <mxGeometry x="419.5" y="6023" width="80" height="80" as="geometry" />
        </mxCell>
        <mxCell id="cFq3RVqTJRuY4f_RMXQ--520" value="&lt;font style=&quot;font-size: 30px;&quot;&gt;y&lt;/font&gt;" style="ellipse;whiteSpace=wrap;html=1;aspect=fixed;" parent="1" vertex="1">
          <mxGeometry x="229.5" y="6213" width="80" height="80" as="geometry" />
        </mxCell>
        <mxCell id="cFq3RVqTJRuY4f_RMXQ--521" style="rounded=0;orthogonalLoop=1;jettySize=auto;html=1;exitX=0;exitY=0.5;exitDx=0;exitDy=0;entryX=1;entryY=0.5;entryDx=0;entryDy=0;strokeWidth=3;endArrow=none;endFill=0;" parent="1" source="cFq3RVqTJRuY4f_RMXQ--524" target="cFq3RVqTJRuY4f_RMXQ--526" edge="1">
          <mxGeometry relative="1" as="geometry" />
        </mxCell>
        <mxCell id="cFq3RVqTJRuY4f_RMXQ--522" style="rounded=0;orthogonalLoop=1;jettySize=auto;html=1;exitX=0;exitY=1;exitDx=0;exitDy=0;entryX=0.5;entryY=0;entryDx=0;entryDy=0;endArrow=none;endFill=0;strokeWidth=4;" parent="1" source="cFq3RVqTJRuY4f_RMXQ--524" target="cFq3RVqTJRuY4f_RMXQ--527" edge="1">
          <mxGeometry relative="1" as="geometry" />
        </mxCell>
        <mxCell id="cFq3RVqTJRuY4f_RMXQ--523" style="rounded=0;orthogonalLoop=1;jettySize=auto;html=1;exitX=0;exitY=1;exitDx=0;exitDy=0;entryX=0.5;entryY=0;entryDx=0;entryDy=0;endArrow=none;endFill=0;strokeColor=#ff0000;opacity=50;strokeWidth=12;" parent="1" source="cFq3RVqTJRuY4f_RMXQ--524" target="cFq3RVqTJRuY4f_RMXQ--527" edge="1">
          <mxGeometry relative="1" as="geometry" />
        </mxCell>
        <mxCell id="cFq3RVqTJRuY4f_RMXQ--524" value="&lt;font style=&quot;font-size: 30px;&quot;&gt;v&lt;/font&gt;" style="ellipse;whiteSpace=wrap;html=1;aspect=fixed;gradientColor=none;fillColor=#F7FF0D;" parent="1" vertex="1">
          <mxGeometry x="674.5" y="6203" width="80" height="80" as="geometry" />
        </mxCell>
        <mxCell id="cFq3RVqTJRuY4f_RMXQ--525" style="rounded=0;orthogonalLoop=1;jettySize=auto;html=1;exitX=0.5;exitY=1;exitDx=0;exitDy=0;entryX=0.5;entryY=0;entryDx=0;entryDy=0;endArrow=none;endFill=0;strokeWidth=3;" parent="1" source="cFq3RVqTJRuY4f_RMXQ--526" target="cFq3RVqTJRuY4f_RMXQ--527" edge="1">
          <mxGeometry relative="1" as="geometry" />
        </mxCell>
        <mxCell id="cFq3RVqTJRuY4f_RMXQ--526" value="&lt;font style=&quot;font-size: 30px;&quot;&gt;w&lt;/font&gt;" style="ellipse;whiteSpace=wrap;html=1;aspect=fixed;" parent="1" vertex="1">
          <mxGeometry x="419.5" y="6203" width="80" height="80" as="geometry" />
        </mxCell>
        <mxCell id="cFq3RVqTJRuY4f_RMXQ--538" style="rounded=0;orthogonalLoop=1;jettySize=auto;html=1;exitX=0.5;exitY=0;exitDx=0;exitDy=0;entryX=0.5;entryY=1;entryDx=0;entryDy=0;endArrow=none;endFill=0;strokeColor=#ff0000;opacity=50;strokeWidth=12;" parent="1" source="cFq3RVqTJRuY4f_RMXQ--527" target="cFq3RVqTJRuY4f_RMXQ--526" edge="1">
          <mxGeometry relative="1" as="geometry" />
        </mxCell>
        <mxCell id="cFq3RVqTJRuY4f_RMXQ--527" value="&lt;font style=&quot;font-size: 30px;&quot;&gt;x&lt;/font&gt;" style="ellipse;whiteSpace=wrap;html=1;aspect=fixed;fillColor=#F7FF0D;" parent="1" vertex="1">
          <mxGeometry x="454.5" y="6453" width="80" height="80" as="geometry" />
        </mxCell>
        <mxCell id="cFq3RVqTJRuY4f_RMXQ--528" value="&lt;font style=&quot;font-size: 18px;&quot;&gt;13&lt;/font&gt;" style="text;html=1;align=center;verticalAlign=middle;whiteSpace=wrap;rounded=0;" parent="1" vertex="1">
          <mxGeometry x="179.5" y="5973" width="60" height="30" as="geometry" />
        </mxCell>
        <mxCell id="cFq3RVqTJRuY4f_RMXQ--529" value="&lt;font style=&quot;font-size: 18px;&quot;&gt;17&lt;/font&gt;" style="text;html=1;align=center;verticalAlign=middle;whiteSpace=wrap;rounded=0;" parent="1" vertex="1">
          <mxGeometry x="289.5" y="6043" width="60" height="30" as="geometry" />
        </mxCell>
        <mxCell id="cFq3RVqTJRuY4f_RMXQ--530" value="&lt;font style=&quot;font-size: 18px;&quot;&gt;16&lt;/font&gt;" style="text;html=1;align=center;verticalAlign=middle;whiteSpace=wrap;rounded=0;" parent="1" vertex="1">
          <mxGeometry x="454.5" y="5913" width="60" height="30" as="geometry" />
        </mxCell>
        <mxCell id="cFq3RVqTJRuY4f_RMXQ--531" value="&lt;font style=&quot;font-size: 18px;&quot;&gt;19&lt;/font&gt;" style="text;html=1;align=center;verticalAlign=middle;whiteSpace=wrap;rounded=0;" parent="1" vertex="1">
          <mxGeometry x="559.5" y="5993" width="60" height="30" as="geometry" />
        </mxCell>
        <mxCell id="cFq3RVqTJRuY4f_RMXQ--532" value="&lt;font style=&quot;font-size: 18px;&quot;&gt;21&lt;/font&gt;" style="text;html=1;align=center;verticalAlign=middle;whiteSpace=wrap;rounded=0;" parent="1" vertex="1">
          <mxGeometry x="694.5" y="6093" width="60" height="30" as="geometry" />
        </mxCell>
        <mxCell id="cFq3RVqTJRuY4f_RMXQ--533" value="&lt;font style=&quot;font-size: 18px;&quot;&gt;26&lt;/font&gt;" style="text;html=1;align=center;verticalAlign=middle;whiteSpace=wrap;rounded=0;" parent="1" vertex="1">
          <mxGeometry x="549.5" y="6113" width="60" height="30" as="geometry" />
        </mxCell>
        <mxCell id="cFq3RVqTJRuY4f_RMXQ--534" value="&lt;font style=&quot;font-size: 18px;&quot;&gt;17&lt;/font&gt;" style="text;html=1;align=center;verticalAlign=middle;whiteSpace=wrap;rounded=0;" parent="1" vertex="1">
          <mxGeometry x="559.5" y="6213" width="60" height="30" as="geometry" />
        </mxCell>
        <mxCell id="cFq3RVqTJRuY4f_RMXQ--535" value="&lt;font style=&quot;font-size: 18px;&quot;&gt;17&lt;/font&gt;" style="text;html=1;align=center;verticalAlign=middle;whiteSpace=wrap;rounded=0;" parent="1" vertex="1">
          <mxGeometry x="454.5" y="6333" width="60" height="30" as="geometry" />
        </mxCell>
        <mxCell id="cFq3RVqTJRuY4f_RMXQ--536" value="&lt;font style=&quot;font-size: 18px;&quot;&gt;13&lt;/font&gt;" style="text;html=1;align=center;verticalAlign=middle;whiteSpace=wrap;rounded=0;" parent="1" vertex="1">
          <mxGeometry x="589.5" y="6343" width="60" height="30" as="geometry" />
        </mxCell>
        <mxCell id="cFq3RVqTJRuY4f_RMXQ--539" value="y" style="whiteSpace=wrap;html=1;aspect=fixed;" parent="1" vertex="1">
          <mxGeometry x="577" y="7630" width="49" height="49" as="geometry" />
        </mxCell>
        <mxCell id="cFq3RVqTJRuY4f_RMXQ--541" value="∞" style="whiteSpace=wrap;html=1;aspect=fixed;" parent="1" vertex="1">
          <mxGeometry x="577" y="7679" width="49" height="49" as="geometry" />
        </mxCell>
        <mxCell id="cFq3RVqTJRuY4f_RMXQ--543" value="NIL" style="whiteSpace=wrap;html=1;aspect=fixed;" parent="1" vertex="1">
          <mxGeometry x="577" y="7728" width="49" height="49" as="geometry" />
        </mxCell>
        <mxCell id="cFq3RVqTJRuY4f_RMXQ--545" style="rounded=0;orthogonalLoop=1;jettySize=auto;html=1;exitX=0;exitY=1;exitDx=0;exitDy=0;entryX=1;entryY=0;entryDx=0;entryDy=0;strokeWidth=3;endArrow=none;endFill=0;" parent="1" source="cFq3RVqTJRuY4f_RMXQ--549" target="cFq3RVqTJRuY4f_RMXQ--565" edge="1">
          <mxGeometry relative="1" as="geometry" />
        </mxCell>
        <mxCell id="cFq3RVqTJRuY4f_RMXQ--546" style="rounded=0;orthogonalLoop=1;jettySize=auto;html=1;exitX=0;exitY=1;exitDx=0;exitDy=0;entryX=0.5;entryY=0;entryDx=0;entryDy=0;endArrow=none;endFill=0;strokeWidth=3;" parent="1" source="cFq3RVqTJRuY4f_RMXQ--549" target="cFq3RVqTJRuY4f_RMXQ--563" edge="1">
          <mxGeometry relative="1" as="geometry" />
        </mxCell>
        <mxCell id="cFq3RVqTJRuY4f_RMXQ--547" style="rounded=0;orthogonalLoop=1;jettySize=auto;html=1;exitX=0;exitY=1;exitDx=0;exitDy=0;entryX=1;entryY=0.5;entryDx=0;entryDy=0;endArrow=none;endFill=0;strokeWidth=12;strokeColor=#ff0000;opacity=50;" parent="1" source="cFq3RVqTJRuY4f_RMXQ--549" target="cFq3RVqTJRuY4f_RMXQ--556" edge="1">
          <mxGeometry relative="1" as="geometry" />
        </mxCell>
        <mxCell id="cFq3RVqTJRuY4f_RMXQ--548" style="rounded=0;orthogonalLoop=1;jettySize=auto;html=1;exitX=0;exitY=1;exitDx=0;exitDy=0;entryX=0.5;entryY=0;entryDx=0;entryDy=0;endArrow=none;endFill=0;strokeColor=#ff0000;strokeWidth=12;opacity=50;" parent="1" source="cFq3RVqTJRuY4f_RMXQ--549" target="cFq3RVqTJRuY4f_RMXQ--563" edge="1">
          <mxGeometry relative="1" as="geometry" />
        </mxCell>
        <mxCell id="cFq3RVqTJRuY4f_RMXQ--549" value="&lt;font style=&quot;font-size: 30px;&quot;&gt;u&lt;/font&gt;" style="ellipse;whiteSpace=wrap;html=1;aspect=fixed;fillColor=#F7FF0D;" parent="1" vertex="1">
          <mxGeometry x="658" y="6915" width="80" height="80" as="geometry" />
        </mxCell>
        <mxCell id="cFq3RVqTJRuY4f_RMXQ--550" style="rounded=0;orthogonalLoop=1;jettySize=auto;html=1;exitX=1;exitY=0;exitDx=0;exitDy=0;entryX=0;entryY=1;entryDx=0;entryDy=0;endArrow=none;endFill=0;strokeWidth=3;" parent="1" source="cFq3RVqTJRuY4f_RMXQ--553" target="cFq3RVqTJRuY4f_RMXQ--556" edge="1">
          <mxGeometry relative="1" as="geometry" />
        </mxCell>
        <mxCell id="cFq3RVqTJRuY4f_RMXQ--551" style="rounded=0;orthogonalLoop=1;jettySize=auto;html=1;exitX=1;exitY=0.5;exitDx=0;exitDy=0;entryX=0;entryY=0.5;entryDx=0;entryDy=0;endArrow=none;endFill=0;strokeWidth=3;" parent="1" source="cFq3RVqTJRuY4f_RMXQ--553" target="cFq3RVqTJRuY4f_RMXQ--558" edge="1">
          <mxGeometry relative="1" as="geometry" />
        </mxCell>
        <mxCell id="cFq3RVqTJRuY4f_RMXQ--552" style="rounded=0;orthogonalLoop=1;jettySize=auto;html=1;exitX=1;exitY=0.5;exitDx=0;exitDy=0;entryX=0;entryY=0.5;entryDx=0;entryDy=0;endArrow=none;endFill=0;strokeWidth=12;strokeColor=#FF0000;opacity=50;" parent="1" source="cFq3RVqTJRuY4f_RMXQ--553" target="cFq3RVqTJRuY4f_RMXQ--558" edge="1">
          <mxGeometry relative="1" as="geometry" />
        </mxCell>
        <mxCell id="cFq3RVqTJRuY4f_RMXQ--553" value="&lt;font style=&quot;font-size: 30px;&quot;&gt;r&lt;/font&gt;" style="ellipse;whiteSpace=wrap;html=1;aspect=fixed;fillColor=#F7FF0D;" parent="1" vertex="1">
          <mxGeometry x="123" y="7035" width="80" height="80" as="geometry" />
        </mxCell>
        <mxCell id="cFq3RVqTJRuY4f_RMXQ--554" style="rounded=0;orthogonalLoop=1;jettySize=auto;html=1;exitX=1;exitY=0.5;exitDx=0;exitDy=0;entryX=0;entryY=1;entryDx=0;entryDy=0;endArrow=none;endFill=0;strokeWidth=3;" parent="1" source="cFq3RVqTJRuY4f_RMXQ--556" target="cFq3RVqTJRuY4f_RMXQ--549" edge="1">
          <mxGeometry relative="1" as="geometry" />
        </mxCell>
        <mxCell id="cFq3RVqTJRuY4f_RMXQ--555" style="rounded=0;orthogonalLoop=1;jettySize=auto;html=1;exitX=0;exitY=1;exitDx=0;exitDy=0;entryX=1;entryY=0;entryDx=0;entryDy=0;endArrow=none;endFill=0;strokeColor=#ff0000;opacity=50;strokeWidth=12;" parent="1" source="cFq3RVqTJRuY4f_RMXQ--556" target="cFq3RVqTJRuY4f_RMXQ--553" edge="1">
          <mxGeometry relative="1" as="geometry" />
        </mxCell>
        <mxCell id="cFq3RVqTJRuY4f_RMXQ--556" value="&lt;font style=&quot;font-size: 30px;&quot;&gt;s&lt;/font&gt;" style="ellipse;whiteSpace=wrap;html=1;aspect=fixed;fillColor=#F7FF0D;" parent="1" vertex="1">
          <mxGeometry x="203" y="6885" width="80" height="80" as="geometry" />
        </mxCell>
        <mxCell id="cFq3RVqTJRuY4f_RMXQ--557" style="rounded=0;orthogonalLoop=1;jettySize=auto;html=1;exitX=1;exitY=0.5;exitDx=0;exitDy=0;entryX=0;entryY=1;entryDx=0;entryDy=0;endArrow=none;endFill=0;strokeWidth=3;" parent="1" source="cFq3RVqTJRuY4f_RMXQ--558" target="cFq3RVqTJRuY4f_RMXQ--549" edge="1">
          <mxGeometry relative="1" as="geometry" />
        </mxCell>
        <mxCell id="cFq3RVqTJRuY4f_RMXQ--558" value="&lt;font style=&quot;font-size: 30px;&quot;&gt;t&lt;/font&gt;" style="ellipse;whiteSpace=wrap;html=1;aspect=fixed;fillColor=#F7FF0D;" parent="1" vertex="1">
          <mxGeometry x="403" y="7025" width="80" height="80" as="geometry" />
        </mxCell>
        <mxCell id="cFq3RVqTJRuY4f_RMXQ--559" value="&lt;font style=&quot;font-size: 30px;&quot;&gt;y&lt;/font&gt;" style="ellipse;whiteSpace=wrap;html=1;aspect=fixed;" parent="1" vertex="1">
          <mxGeometry x="213" y="7215" width="80" height="80" as="geometry" />
        </mxCell>
        <mxCell id="cFq3RVqTJRuY4f_RMXQ--560" style="rounded=0;orthogonalLoop=1;jettySize=auto;html=1;exitX=0;exitY=0.5;exitDx=0;exitDy=0;entryX=1;entryY=0.5;entryDx=0;entryDy=0;strokeWidth=3;endArrow=none;endFill=0;" parent="1" source="cFq3RVqTJRuY4f_RMXQ--563" target="cFq3RVqTJRuY4f_RMXQ--565" edge="1">
          <mxGeometry relative="1" as="geometry" />
        </mxCell>
        <mxCell id="cFq3RVqTJRuY4f_RMXQ--561" style="rounded=0;orthogonalLoop=1;jettySize=auto;html=1;exitX=0;exitY=1;exitDx=0;exitDy=0;entryX=0.5;entryY=0;entryDx=0;entryDy=0;endArrow=none;endFill=0;strokeWidth=4;" parent="1" source="cFq3RVqTJRuY4f_RMXQ--563" target="cFq3RVqTJRuY4f_RMXQ--567" edge="1">
          <mxGeometry relative="1" as="geometry" />
        </mxCell>
        <mxCell id="cFq3RVqTJRuY4f_RMXQ--562" style="rounded=0;orthogonalLoop=1;jettySize=auto;html=1;exitX=0;exitY=1;exitDx=0;exitDy=0;entryX=0.5;entryY=0;entryDx=0;entryDy=0;endArrow=none;endFill=0;strokeColor=#ff0000;opacity=50;strokeWidth=12;" parent="1" source="cFq3RVqTJRuY4f_RMXQ--563" target="cFq3RVqTJRuY4f_RMXQ--567" edge="1">
          <mxGeometry relative="1" as="geometry" />
        </mxCell>
        <mxCell id="cFq3RVqTJRuY4f_RMXQ--563" value="&lt;font style=&quot;font-size: 30px;&quot;&gt;v&lt;/font&gt;" style="ellipse;whiteSpace=wrap;html=1;aspect=fixed;gradientColor=none;fillColor=#F7FF0D;" parent="1" vertex="1">
          <mxGeometry x="658" y="7205" width="80" height="80" as="geometry" />
        </mxCell>
        <mxCell id="cFq3RVqTJRuY4f_RMXQ--564" style="rounded=0;orthogonalLoop=1;jettySize=auto;html=1;exitX=0.5;exitY=1;exitDx=0;exitDy=0;entryX=0.5;entryY=0;entryDx=0;entryDy=0;endArrow=none;endFill=0;strokeWidth=3;" parent="1" source="cFq3RVqTJRuY4f_RMXQ--565" target="cFq3RVqTJRuY4f_RMXQ--567" edge="1">
          <mxGeometry relative="1" as="geometry" />
        </mxCell>
        <mxCell id="cFq3RVqTJRuY4f_RMXQ--565" value="&lt;font style=&quot;font-size: 30px;&quot;&gt;w&lt;/font&gt;" style="ellipse;whiteSpace=wrap;html=1;aspect=fixed;fillColor=#F7FF0D;" parent="1" vertex="1">
          <mxGeometry x="403" y="7205" width="80" height="80" as="geometry" />
        </mxCell>
        <mxCell id="cFq3RVqTJRuY4f_RMXQ--566" style="rounded=0;orthogonalLoop=1;jettySize=auto;html=1;exitX=0.5;exitY=0;exitDx=0;exitDy=0;entryX=0.5;entryY=1;entryDx=0;entryDy=0;endArrow=none;endFill=0;strokeColor=#ff0000;opacity=50;strokeWidth=12;" parent="1" source="cFq3RVqTJRuY4f_RMXQ--567" target="cFq3RVqTJRuY4f_RMXQ--565" edge="1">
          <mxGeometry relative="1" as="geometry" />
        </mxCell>
        <mxCell id="cFq3RVqTJRuY4f_RMXQ--567" value="&lt;font style=&quot;font-size: 30px;&quot;&gt;x&lt;/font&gt;" style="ellipse;whiteSpace=wrap;html=1;aspect=fixed;fillColor=#F7FF0D;" parent="1" vertex="1">
          <mxGeometry x="438" y="7455" width="80" height="80" as="geometry" />
        </mxCell>
        <mxCell id="cFq3RVqTJRuY4f_RMXQ--568" value="&lt;font style=&quot;font-size: 18px;&quot;&gt;13&lt;/font&gt;" style="text;html=1;align=center;verticalAlign=middle;whiteSpace=wrap;rounded=0;" parent="1" vertex="1">
          <mxGeometry x="163" y="6975" width="60" height="30" as="geometry" />
        </mxCell>
        <mxCell id="cFq3RVqTJRuY4f_RMXQ--569" value="&lt;font style=&quot;font-size: 18px;&quot;&gt;17&lt;/font&gt;" style="text;html=1;align=center;verticalAlign=middle;whiteSpace=wrap;rounded=0;" parent="1" vertex="1">
          <mxGeometry x="273" y="7045" width="60" height="30" as="geometry" />
        </mxCell>
        <mxCell id="cFq3RVqTJRuY4f_RMXQ--570" value="&lt;font style=&quot;font-size: 18px;&quot;&gt;16&lt;/font&gt;" style="text;html=1;align=center;verticalAlign=middle;whiteSpace=wrap;rounded=0;" parent="1" vertex="1">
          <mxGeometry x="438" y="6915" width="60" height="30" as="geometry" />
        </mxCell>
        <mxCell id="cFq3RVqTJRuY4f_RMXQ--571" value="&lt;font style=&quot;font-size: 18px;&quot;&gt;19&lt;/font&gt;" style="text;html=1;align=center;verticalAlign=middle;whiteSpace=wrap;rounded=0;" parent="1" vertex="1">
          <mxGeometry x="543" y="6995" width="60" height="30" as="geometry" />
        </mxCell>
        <mxCell id="cFq3RVqTJRuY4f_RMXQ--572" value="&lt;font style=&quot;font-size: 18px;&quot;&gt;21&lt;/font&gt;" style="text;html=1;align=center;verticalAlign=middle;whiteSpace=wrap;rounded=0;" parent="1" vertex="1">
          <mxGeometry x="678" y="7095" width="60" height="30" as="geometry" />
        </mxCell>
        <mxCell id="cFq3RVqTJRuY4f_RMXQ--573" value="&lt;font style=&quot;font-size: 18px;&quot;&gt;26&lt;/font&gt;" style="text;html=1;align=center;verticalAlign=middle;whiteSpace=wrap;rounded=0;" parent="1" vertex="1">
          <mxGeometry x="533" y="7115" width="60" height="30" as="geometry" />
        </mxCell>
        <mxCell id="cFq3RVqTJRuY4f_RMXQ--574" value="&lt;font style=&quot;font-size: 18px;&quot;&gt;17&lt;/font&gt;" style="text;html=1;align=center;verticalAlign=middle;whiteSpace=wrap;rounded=0;" parent="1" vertex="1">
          <mxGeometry x="543" y="7215" width="60" height="30" as="geometry" />
        </mxCell>
        <mxCell id="cFq3RVqTJRuY4f_RMXQ--575" value="&lt;font style=&quot;font-size: 18px;&quot;&gt;17&lt;/font&gt;" style="text;html=1;align=center;verticalAlign=middle;whiteSpace=wrap;rounded=0;" parent="1" vertex="1">
          <mxGeometry x="438" y="7335" width="60" height="30" as="geometry" />
        </mxCell>
        <mxCell id="cFq3RVqTJRuY4f_RMXQ--576" value="&lt;font style=&quot;font-size: 18px;&quot;&gt;13&lt;/font&gt;" style="text;html=1;align=center;verticalAlign=middle;whiteSpace=wrap;rounded=0;" parent="1" vertex="1">
          <mxGeometry x="573" y="7345" width="60" height="30" as="geometry" />
        </mxCell>
        <mxCell id="zPZjHM6UMrZV1dsvePok-1" value="&lt;font style=&quot;font-size: 18px;&quot;&gt;9&lt;/font&gt;" style="text;html=1;align=center;verticalAlign=middle;whiteSpace=wrap;rounded=0;" vertex="1" parent="1">
          <mxGeometry x="190" y="276" width="60" height="30" as="geometry" />
        </mxCell>
        <mxCell id="zPZjHM6UMrZV1dsvePok-4" value="&lt;font style=&quot;font-size: 18px;&quot;&gt;7&lt;/font&gt;" style="text;html=1;align=center;verticalAlign=middle;whiteSpace=wrap;rounded=0;" vertex="1" parent="1">
          <mxGeometry x="343" y="480" width="60" height="30" as="geometry" />
        </mxCell>
      </root>
    </mxGraphModel>
  </diagram>
</mxfile>
